<mxfile host="www.draw.io" modified="2020-03-27T18:56:36.478Z" agent="Mozilla/5.0 (Macintosh; Intel Mac OS X 10_15_1) AppleWebKit/537.36 (KHTML, like Gecko) Chrome/80.0.3987.149 Safari/537.36" etag="YT-FZ7v1l3q3KILrMENT" version="12.9.3" type="github" pages="14">
  <diagram id="kpzApZ7glF94e7MnODkk" name="01 - react">
    <mxGraphModel dx="812" dy="399" grid="1" gridSize="10" guides="1" tooltips="1" connect="1" arrows="1" fold="1" page="1" pageScale="1" pageWidth="1920" pageHeight="1200" math="0" shadow="0">
      <root>
        <mxCell id="0" />
        <mxCell id="1" parent="0" />
        <mxCell id="IB1_egTmdCTJ5FpJGSNy-1" value="" style="rounded=0;whiteSpace=wrap;html=1;" vertex="1" parent="1">
          <mxGeometry x="630" y="250" width="630" height="400" as="geometry" />
        </mxCell>
        <mxCell id="IB1_egTmdCTJ5FpJGSNy-2" value="Pod" style="rounded=0;whiteSpace=wrap;html=1;fontSize=19;fillColor=#e1d5e7;strokeColor=#9673a6;fontStyle=1" vertex="1" parent="1">
          <mxGeometry x="1090" y="405" width="160" height="30" as="geometry" />
        </mxCell>
        <mxCell id="IB1_egTmdCTJ5FpJGSNy-3" value="" style="rounded=0;whiteSpace=wrap;html=1;fontSize=19;fillColor=#e1d5e7;strokeColor=#9673a6;fontStyle=1" vertex="1" parent="1">
          <mxGeometry x="1090" y="435" width="160" height="60" as="geometry" />
        </mxCell>
        <mxCell id="IB1_egTmdCTJ5FpJGSNy-4" value="Event Bus" style="rounded=0;whiteSpace=wrap;html=1;fontSize=15;fontColor=#000000;" vertex="1" parent="1">
          <mxGeometry x="1100" y="442" width="140" height="43" as="geometry" />
        </mxCell>
        <mxCell id="IB1_egTmdCTJ5FpJGSNy-5" value="Pod" style="rounded=0;whiteSpace=wrap;html=1;fontSize=19;fillColor=#d5e8d4;strokeColor=#82b366;fontStyle=1" vertex="1" parent="1">
          <mxGeometry x="890" y="260" width="160" height="30" as="geometry" />
        </mxCell>
        <mxCell id="IB1_egTmdCTJ5FpJGSNy-6" value="" style="rounded=0;whiteSpace=wrap;html=1;fontSize=19;fillColor=#d5e8d4;strokeColor=#82b366;fontStyle=1" vertex="1" parent="1">
          <mxGeometry x="890" y="290" width="160" height="60" as="geometry" />
        </mxCell>
        <mxCell id="IB1_egTmdCTJ5FpJGSNy-7" value="Posts" style="rounded=0;whiteSpace=wrap;html=1;fontSize=15;fontColor=#000000;" vertex="1" parent="1">
          <mxGeometry x="900" y="297" width="140" height="43" as="geometry" />
        </mxCell>
        <mxCell id="IB1_egTmdCTJ5FpJGSNy-8" value="Pod" style="rounded=0;whiteSpace=wrap;html=1;fontSize=19;fillColor=#d5e8d4;strokeColor=#82b366;fontStyle=1" vertex="1" parent="1">
          <mxGeometry x="890" y="355" width="160" height="30" as="geometry" />
        </mxCell>
        <mxCell id="IB1_egTmdCTJ5FpJGSNy-9" value="" style="rounded=0;whiteSpace=wrap;html=1;fontSize=19;fillColor=#d5e8d4;strokeColor=#82b366;fontStyle=1" vertex="1" parent="1">
          <mxGeometry x="890" y="385" width="160" height="60" as="geometry" />
        </mxCell>
        <mxCell id="IB1_egTmdCTJ5FpJGSNy-10" value="Comments" style="rounded=0;whiteSpace=wrap;html=1;fontSize=15;fontColor=#000000;" vertex="1" parent="1">
          <mxGeometry x="900" y="392" width="140" height="43" as="geometry" />
        </mxCell>
        <mxCell id="IB1_egTmdCTJ5FpJGSNy-11" value="Pod" style="rounded=0;whiteSpace=wrap;html=1;fontSize=19;fillColor=#d5e8d4;strokeColor=#82b366;fontStyle=1" vertex="1" parent="1">
          <mxGeometry x="890" y="450" width="160" height="30" as="geometry" />
        </mxCell>
        <mxCell id="IB1_egTmdCTJ5FpJGSNy-12" value="" style="rounded=0;whiteSpace=wrap;html=1;fontSize=19;fillColor=#d5e8d4;strokeColor=#82b366;fontStyle=1" vertex="1" parent="1">
          <mxGeometry x="890" y="480" width="160" height="60" as="geometry" />
        </mxCell>
        <mxCell id="IB1_egTmdCTJ5FpJGSNy-13" value="Query" style="rounded=0;whiteSpace=wrap;html=1;fontSize=15;fontColor=#000000;" vertex="1" parent="1">
          <mxGeometry x="900" y="487" width="140" height="43" as="geometry" />
        </mxCell>
        <mxCell id="IB1_egTmdCTJ5FpJGSNy-14" value="Pod" style="rounded=0;whiteSpace=wrap;html=1;fontSize=19;fillColor=#d5e8d4;strokeColor=#82b366;fontStyle=1" vertex="1" parent="1">
          <mxGeometry x="890" y="550" width="160" height="30" as="geometry" />
        </mxCell>
        <mxCell id="IB1_egTmdCTJ5FpJGSNy-15" value="" style="rounded=0;whiteSpace=wrap;html=1;fontSize=19;fillColor=#d5e8d4;strokeColor=#82b366;fontStyle=1" vertex="1" parent="1">
          <mxGeometry x="890" y="580" width="160" height="60" as="geometry" />
        </mxCell>
        <mxCell id="IB1_egTmdCTJ5FpJGSNy-16" value="Moderation" style="rounded=0;whiteSpace=wrap;html=1;fontSize=15;fontColor=#000000;" vertex="1" parent="1">
          <mxGeometry x="900" y="587" width="140" height="43" as="geometry" />
        </mxCell>
        <mxCell id="IB1_egTmdCTJ5FpJGSNy-17" value="Pod" style="rounded=0;whiteSpace=wrap;html=1;fontSize=19;fillColor=#dae8fc;strokeColor=#6c8ebf;fontStyle=1" vertex="1" parent="1">
          <mxGeometry x="640" y="405" width="160" height="30" as="geometry" />
        </mxCell>
        <mxCell id="IB1_egTmdCTJ5FpJGSNy-18" value="" style="rounded=0;whiteSpace=wrap;html=1;fontSize=19;fillColor=#dae8fc;strokeColor=#6c8ebf;fontStyle=1" vertex="1" parent="1">
          <mxGeometry x="640" y="435" width="160" height="60" as="geometry" />
        </mxCell>
        <mxCell id="IB1_egTmdCTJ5FpJGSNy-19" value="React App Dev Server" style="rounded=0;whiteSpace=wrap;html=1;fontSize=15;fontColor=#000000;" vertex="1" parent="1">
          <mxGeometry x="650" y="442" width="140" height="43" as="geometry" />
        </mxCell>
        <mxCell id="IB1_egTmdCTJ5FpJGSNy-20" value="Node" style="text;html=1;strokeColor=none;fillColor=none;align=center;verticalAlign=middle;whiteSpace=wrap;rounded=0;fontStyle=1" vertex="1" parent="1">
          <mxGeometry x="630" y="250" width="40" height="20" as="geometry" />
        </mxCell>
      </root>
    </mxGraphModel>
  </diagram>
  <diagram name="02 - initial" id="tzPpmTXgfITc9MMg-aTa">
    <mxGraphModel dx="1073" dy="528" grid="1" gridSize="10" guides="1" tooltips="1" connect="1" arrows="1" fold="1" page="1" pageScale="1" pageWidth="1920" pageHeight="1200" math="0" shadow="0">
      <root>
        <mxCell id="8meKdaAP-NxbfOjaS354-0" />
        <mxCell id="8meKdaAP-NxbfOjaS354-1" parent="8meKdaAP-NxbfOjaS354-0" />
        <mxCell id="8meKdaAP-NxbfOjaS354-2" value="" style="rounded=0;whiteSpace=wrap;html=1;" vertex="1" parent="8meKdaAP-NxbfOjaS354-1">
          <mxGeometry x="660" y="250" width="600" height="400" as="geometry" />
        </mxCell>
        <mxCell id="8meKdaAP-NxbfOjaS354-3" value="Pod" style="rounded=0;whiteSpace=wrap;html=1;fontSize=19;fillColor=#e1d5e7;strokeColor=#9673a6;fontStyle=1" vertex="1" parent="8meKdaAP-NxbfOjaS354-1">
          <mxGeometry x="1090" y="405" width="160" height="30" as="geometry" />
        </mxCell>
        <mxCell id="8meKdaAP-NxbfOjaS354-4" value="" style="rounded=0;whiteSpace=wrap;html=1;fontSize=19;fillColor=#e1d5e7;strokeColor=#9673a6;fontStyle=1" vertex="1" parent="8meKdaAP-NxbfOjaS354-1">
          <mxGeometry x="1090" y="435" width="160" height="60" as="geometry" />
        </mxCell>
        <mxCell id="8meKdaAP-NxbfOjaS354-5" value="Event Bus" style="rounded=0;whiteSpace=wrap;html=1;fontSize=15;fontColor=#000000;" vertex="1" parent="8meKdaAP-NxbfOjaS354-1">
          <mxGeometry x="1100" y="442" width="140" height="43" as="geometry" />
        </mxCell>
        <mxCell id="8meKdaAP-NxbfOjaS354-6" value="Pod" style="rounded=0;whiteSpace=wrap;html=1;fontSize=19;fillColor=#d5e8d4;strokeColor=#82b366;fontStyle=1" vertex="1" parent="8meKdaAP-NxbfOjaS354-1">
          <mxGeometry x="890" y="260" width="160" height="30" as="geometry" />
        </mxCell>
        <mxCell id="8meKdaAP-NxbfOjaS354-7" value="" style="rounded=0;whiteSpace=wrap;html=1;fontSize=19;fillColor=#d5e8d4;strokeColor=#82b366;fontStyle=1" vertex="1" parent="8meKdaAP-NxbfOjaS354-1">
          <mxGeometry x="890" y="290" width="160" height="60" as="geometry" />
        </mxCell>
        <mxCell id="8meKdaAP-NxbfOjaS354-8" value="Posts" style="rounded=0;whiteSpace=wrap;html=1;fontSize=15;fontColor=#000000;" vertex="1" parent="8meKdaAP-NxbfOjaS354-1">
          <mxGeometry x="900" y="297" width="140" height="43" as="geometry" />
        </mxCell>
        <mxCell id="8meKdaAP-NxbfOjaS354-9" value="Pod" style="rounded=0;whiteSpace=wrap;html=1;fontSize=19;fillColor=#d5e8d4;strokeColor=#82b366;fontStyle=1" vertex="1" parent="8meKdaAP-NxbfOjaS354-1">
          <mxGeometry x="890" y="355" width="160" height="30" as="geometry" />
        </mxCell>
        <mxCell id="8meKdaAP-NxbfOjaS354-10" value="" style="rounded=0;whiteSpace=wrap;html=1;fontSize=19;fillColor=#d5e8d4;strokeColor=#82b366;fontStyle=1" vertex="1" parent="8meKdaAP-NxbfOjaS354-1">
          <mxGeometry x="890" y="385" width="160" height="60" as="geometry" />
        </mxCell>
        <mxCell id="8meKdaAP-NxbfOjaS354-11" value="Comments" style="rounded=0;whiteSpace=wrap;html=1;fontSize=15;fontColor=#000000;" vertex="1" parent="8meKdaAP-NxbfOjaS354-1">
          <mxGeometry x="900" y="392" width="140" height="43" as="geometry" />
        </mxCell>
        <mxCell id="8meKdaAP-NxbfOjaS354-12" value="Pod" style="rounded=0;whiteSpace=wrap;html=1;fontSize=19;fillColor=#d5e8d4;strokeColor=#82b366;fontStyle=1" vertex="1" parent="8meKdaAP-NxbfOjaS354-1">
          <mxGeometry x="890" y="450" width="160" height="30" as="geometry" />
        </mxCell>
        <mxCell id="8meKdaAP-NxbfOjaS354-13" value="" style="rounded=0;whiteSpace=wrap;html=1;fontSize=19;fillColor=#d5e8d4;strokeColor=#82b366;fontStyle=1" vertex="1" parent="8meKdaAP-NxbfOjaS354-1">
          <mxGeometry x="890" y="480" width="160" height="60" as="geometry" />
        </mxCell>
        <mxCell id="8meKdaAP-NxbfOjaS354-14" value="Query" style="rounded=0;whiteSpace=wrap;html=1;fontSize=15;fontColor=#000000;" vertex="1" parent="8meKdaAP-NxbfOjaS354-1">
          <mxGeometry x="900" y="487" width="140" height="43" as="geometry" />
        </mxCell>
        <mxCell id="8meKdaAP-NxbfOjaS354-15" value="Pod" style="rounded=0;whiteSpace=wrap;html=1;fontSize=19;fillColor=#d5e8d4;strokeColor=#82b366;fontStyle=1" vertex="1" parent="8meKdaAP-NxbfOjaS354-1">
          <mxGeometry x="890" y="550" width="160" height="30" as="geometry" />
        </mxCell>
        <mxCell id="8meKdaAP-NxbfOjaS354-16" value="" style="rounded=0;whiteSpace=wrap;html=1;fontSize=19;fillColor=#d5e8d4;strokeColor=#82b366;fontStyle=1" vertex="1" parent="8meKdaAP-NxbfOjaS354-1">
          <mxGeometry x="890" y="580" width="160" height="60" as="geometry" />
        </mxCell>
        <mxCell id="8meKdaAP-NxbfOjaS354-17" value="Moderation" style="rounded=0;whiteSpace=wrap;html=1;fontSize=15;fontColor=#000000;" vertex="1" parent="8meKdaAP-NxbfOjaS354-1">
          <mxGeometry x="900" y="587" width="140" height="43" as="geometry" />
        </mxCell>
        <mxCell id="8meKdaAP-NxbfOjaS354-18" value="Pod" style="rounded=0;whiteSpace=wrap;html=1;fontSize=19;fillColor=#dae8fc;strokeColor=#6c8ebf;fontStyle=1" vertex="1" parent="8meKdaAP-NxbfOjaS354-1">
          <mxGeometry x="680" y="405" width="160" height="30" as="geometry" />
        </mxCell>
        <mxCell id="8meKdaAP-NxbfOjaS354-19" value="" style="rounded=0;whiteSpace=wrap;html=1;fontSize=19;fillColor=#dae8fc;strokeColor=#6c8ebf;fontStyle=1" vertex="1" parent="8meKdaAP-NxbfOjaS354-1">
          <mxGeometry x="680" y="435" width="160" height="60" as="geometry" />
        </mxCell>
        <mxCell id="8meKdaAP-NxbfOjaS354-20" value="React App Dev Server" style="rounded=0;whiteSpace=wrap;html=1;fontSize=15;fontColor=#000000;" vertex="1" parent="8meKdaAP-NxbfOjaS354-1">
          <mxGeometry x="690" y="442" width="140" height="43" as="geometry" />
        </mxCell>
        <mxCell id="8meKdaAP-NxbfOjaS354-21" value="Node" style="text;html=1;strokeColor=none;fillColor=none;align=center;verticalAlign=middle;whiteSpace=wrap;rounded=0;fontStyle=1" vertex="1" parent="8meKdaAP-NxbfOjaS354-1">
          <mxGeometry x="660" y="250" width="40" height="20" as="geometry" />
        </mxCell>
        <mxCell id="8meKdaAP-NxbfOjaS354-22" value="" style="strokeWidth=1;shadow=0;dashed=0;align=center;html=1;shape=mxgraph.mockup.containers.browserWindow;rSize=0;strokeColor=#666666;strokeColor2=#008cff;strokeColor3=#c4c4c4;mainText=,;recursiveResize=0;" vertex="1" parent="8meKdaAP-NxbfOjaS354-1">
          <mxGeometry x="230" y="310" width="240" height="270" as="geometry" />
        </mxCell>
        <mxCell id="8meKdaAP-NxbfOjaS354-23" value="Page 1" style="strokeWidth=1;shadow=0;dashed=0;align=center;html=1;shape=mxgraph.mockup.containers.anchor;fontSize=17;fontColor=#666666;align=left;" vertex="1" parent="8meKdaAP-NxbfOjaS354-22">
          <mxGeometry x="60" y="12" width="110" height="26" as="geometry" />
        </mxCell>
        <mxCell id="8meKdaAP-NxbfOjaS354-24" value="" style="strokeWidth=1;shadow=0;dashed=0;align=center;html=1;shape=mxgraph.mockup.containers.anchor;rSize=0;fontSize=17;fontColor=#666666;align=left;" vertex="1" parent="8meKdaAP-NxbfOjaS354-22">
          <mxGeometry x="130" y="60" width="250" height="26" as="geometry" />
        </mxCell>
        <mxCell id="8meKdaAP-NxbfOjaS354-25" value="" style="endArrow=classic;html=1;" edge="1" parent="8meKdaAP-NxbfOjaS354-1">
          <mxGeometry width="50" height="50" relative="1" as="geometry">
            <mxPoint x="490" y="420" as="sourcePoint" />
            <mxPoint x="660" y="420" as="targetPoint" />
          </mxGeometry>
        </mxCell>
        <mxCell id="8meKdaAP-NxbfOjaS354-26" value="" style="endArrow=classic;html=1;" edge="1" parent="8meKdaAP-NxbfOjaS354-1">
          <mxGeometry width="50" height="50" relative="1" as="geometry">
            <mxPoint x="660" y="484.2899999999999" as="sourcePoint" />
            <mxPoint x="490" y="484.2899999999999" as="targetPoint" />
          </mxGeometry>
        </mxCell>
        <mxCell id="8meKdaAP-NxbfOjaS354-27" value="Navigate to app" style="rounded=0;whiteSpace=wrap;html=1;fillColor=#f8cecc;strokeColor=#b85450;fontStyle=1" vertex="1" parent="8meKdaAP-NxbfOjaS354-1">
          <mxGeometry x="520" y="392" width="120" height="27" as="geometry" />
        </mxCell>
        <mxCell id="8meKdaAP-NxbfOjaS354-28" value="React Apps HTML + JS + CSS" style="rounded=0;whiteSpace=wrap;html=1;fillColor=#f8cecc;strokeColor=#b85450;fontStyle=1" vertex="1" parent="8meKdaAP-NxbfOjaS354-1">
          <mxGeometry x="520" y="485" width="120" height="35" as="geometry" />
        </mxCell>
      </root>
    </mxGraphModel>
  </diagram>
  <diagram name="03 - app" id="yNBErdmPtVAnWXCAPx-u">
    <mxGraphModel dx="858" dy="422" grid="1" gridSize="10" guides="1" tooltips="1" connect="1" arrows="1" fold="1" page="1" pageScale="1" pageWidth="1920" pageHeight="1200" math="0" shadow="0">
      <root>
        <mxCell id="JTU57aeXeBHjbI2O7M-v-0" />
        <mxCell id="JTU57aeXeBHjbI2O7M-v-1" parent="JTU57aeXeBHjbI2O7M-v-0" />
        <mxCell id="JTU57aeXeBHjbI2O7M-v-2" value="" style="rounded=0;whiteSpace=wrap;html=1;" vertex="1" parent="JTU57aeXeBHjbI2O7M-v-1">
          <mxGeometry x="680" y="260" width="400" height="400" as="geometry" />
        </mxCell>
        <mxCell id="JTU57aeXeBHjbI2O7M-v-3" value="Pod" style="rounded=0;whiteSpace=wrap;html=1;fontSize=19;fillColor=#e1d5e7;strokeColor=#9673a6;fontStyle=1" vertex="1" parent="JTU57aeXeBHjbI2O7M-v-1">
          <mxGeometry x="910" y="415" width="160" height="30" as="geometry" />
        </mxCell>
        <mxCell id="JTU57aeXeBHjbI2O7M-v-4" value="" style="rounded=0;whiteSpace=wrap;html=1;fontSize=19;fillColor=#e1d5e7;strokeColor=#9673a6;fontStyle=1" vertex="1" parent="JTU57aeXeBHjbI2O7M-v-1">
          <mxGeometry x="910" y="445" width="160" height="60" as="geometry" />
        </mxCell>
        <mxCell id="JTU57aeXeBHjbI2O7M-v-5" value="Event Bus" style="rounded=0;whiteSpace=wrap;html=1;fontSize=15;fontColor=#000000;" vertex="1" parent="JTU57aeXeBHjbI2O7M-v-1">
          <mxGeometry x="920" y="452" width="140" height="43" as="geometry" />
        </mxCell>
        <mxCell id="JTU57aeXeBHjbI2O7M-v-6" value="Pod" style="rounded=0;whiteSpace=wrap;html=1;fontSize=19;fillColor=#d5e8d4;strokeColor=#82b366;fontStyle=1" vertex="1" parent="JTU57aeXeBHjbI2O7M-v-1">
          <mxGeometry x="710" y="270" width="160" height="30" as="geometry" />
        </mxCell>
        <mxCell id="JTU57aeXeBHjbI2O7M-v-7" value="" style="rounded=0;whiteSpace=wrap;html=1;fontSize=19;fillColor=#d5e8d4;strokeColor=#82b366;fontStyle=1" vertex="1" parent="JTU57aeXeBHjbI2O7M-v-1">
          <mxGeometry x="710" y="300" width="160" height="60" as="geometry" />
        </mxCell>
        <mxCell id="JTU57aeXeBHjbI2O7M-v-8" value="Posts" style="rounded=0;whiteSpace=wrap;html=1;fontSize=15;fontColor=#000000;" vertex="1" parent="JTU57aeXeBHjbI2O7M-v-1">
          <mxGeometry x="720" y="307" width="140" height="43" as="geometry" />
        </mxCell>
        <mxCell id="JTU57aeXeBHjbI2O7M-v-9" value="Pod" style="rounded=0;whiteSpace=wrap;html=1;fontSize=19;fillColor=#d5e8d4;strokeColor=#82b366;fontStyle=1" vertex="1" parent="JTU57aeXeBHjbI2O7M-v-1">
          <mxGeometry x="710" y="365" width="160" height="30" as="geometry" />
        </mxCell>
        <mxCell id="JTU57aeXeBHjbI2O7M-v-10" value="" style="rounded=0;whiteSpace=wrap;html=1;fontSize=19;fillColor=#d5e8d4;strokeColor=#82b366;fontStyle=1" vertex="1" parent="JTU57aeXeBHjbI2O7M-v-1">
          <mxGeometry x="710" y="395" width="160" height="60" as="geometry" />
        </mxCell>
        <mxCell id="JTU57aeXeBHjbI2O7M-v-11" value="Comments" style="rounded=0;whiteSpace=wrap;html=1;fontSize=15;fontColor=#000000;" vertex="1" parent="JTU57aeXeBHjbI2O7M-v-1">
          <mxGeometry x="720" y="402" width="140" height="43" as="geometry" />
        </mxCell>
        <mxCell id="JTU57aeXeBHjbI2O7M-v-12" value="Pod" style="rounded=0;whiteSpace=wrap;html=1;fontSize=19;fillColor=#d5e8d4;strokeColor=#82b366;fontStyle=1" vertex="1" parent="JTU57aeXeBHjbI2O7M-v-1">
          <mxGeometry x="710" y="460" width="160" height="30" as="geometry" />
        </mxCell>
        <mxCell id="JTU57aeXeBHjbI2O7M-v-13" value="" style="rounded=0;whiteSpace=wrap;html=1;fontSize=19;fillColor=#d5e8d4;strokeColor=#82b366;fontStyle=1" vertex="1" parent="JTU57aeXeBHjbI2O7M-v-1">
          <mxGeometry x="710" y="490" width="160" height="60" as="geometry" />
        </mxCell>
        <mxCell id="JTU57aeXeBHjbI2O7M-v-14" value="Query" style="rounded=0;whiteSpace=wrap;html=1;fontSize=15;fontColor=#000000;" vertex="1" parent="JTU57aeXeBHjbI2O7M-v-1">
          <mxGeometry x="720" y="497" width="140" height="43" as="geometry" />
        </mxCell>
        <mxCell id="JTU57aeXeBHjbI2O7M-v-15" value="Pod" style="rounded=0;whiteSpace=wrap;html=1;fontSize=19;fillColor=#d5e8d4;strokeColor=#82b366;fontStyle=1" vertex="1" parent="JTU57aeXeBHjbI2O7M-v-1">
          <mxGeometry x="710" y="560" width="160" height="30" as="geometry" />
        </mxCell>
        <mxCell id="JTU57aeXeBHjbI2O7M-v-16" value="" style="rounded=0;whiteSpace=wrap;html=1;fontSize=19;fillColor=#d5e8d4;strokeColor=#82b366;fontStyle=1" vertex="1" parent="JTU57aeXeBHjbI2O7M-v-1">
          <mxGeometry x="710" y="590" width="160" height="60" as="geometry" />
        </mxCell>
        <mxCell id="JTU57aeXeBHjbI2O7M-v-17" value="Moderation" style="rounded=0;whiteSpace=wrap;html=1;fontSize=15;fontColor=#000000;" vertex="1" parent="JTU57aeXeBHjbI2O7M-v-1">
          <mxGeometry x="720" y="597" width="140" height="43" as="geometry" />
        </mxCell>
        <mxCell id="JTU57aeXeBHjbI2O7M-v-18" value="Pod" style="rounded=0;whiteSpace=wrap;html=1;fontSize=19;fillColor=#dae8fc;strokeColor=#6c8ebf;fontStyle=1" vertex="1" parent="JTU57aeXeBHjbI2O7M-v-1">
          <mxGeometry x="910" y="560" width="160" height="30" as="geometry" />
        </mxCell>
        <mxCell id="JTU57aeXeBHjbI2O7M-v-19" value="" style="rounded=0;whiteSpace=wrap;html=1;fontSize=19;fillColor=#dae8fc;strokeColor=#6c8ebf;fontStyle=1" vertex="1" parent="JTU57aeXeBHjbI2O7M-v-1">
          <mxGeometry x="910" y="590" width="160" height="60" as="geometry" />
        </mxCell>
        <mxCell id="JTU57aeXeBHjbI2O7M-v-20" value="React App Dev Server" style="rounded=0;whiteSpace=wrap;html=1;fontSize=15;fontColor=#000000;" vertex="1" parent="JTU57aeXeBHjbI2O7M-v-1">
          <mxGeometry x="920" y="597" width="140" height="43" as="geometry" />
        </mxCell>
        <mxCell id="JTU57aeXeBHjbI2O7M-v-21" value="Node" style="text;html=1;strokeColor=none;fillColor=none;align=center;verticalAlign=middle;whiteSpace=wrap;rounded=0;fontStyle=1" vertex="1" parent="JTU57aeXeBHjbI2O7M-v-1">
          <mxGeometry x="1040" y="260" width="40" height="20" as="geometry" />
        </mxCell>
        <mxCell id="JTU57aeXeBHjbI2O7M-v-22" value="" style="strokeWidth=1;shadow=0;dashed=0;align=center;html=1;shape=mxgraph.mockup.containers.browserWindow;rSize=0;strokeColor=#666666;strokeColor2=#008cff;strokeColor3=#c4c4c4;mainText=,;recursiveResize=0;" vertex="1" parent="JTU57aeXeBHjbI2O7M-v-1">
          <mxGeometry x="230" y="310" width="250" height="270" as="geometry" />
        </mxCell>
        <mxCell id="JTU57aeXeBHjbI2O7M-v-23" value="Page 1" style="strokeWidth=1;shadow=0;dashed=0;align=center;html=1;shape=mxgraph.mockup.containers.anchor;fontSize=17;fontColor=#666666;align=left;" vertex="1" parent="JTU57aeXeBHjbI2O7M-v-22">
          <mxGeometry x="60" y="12" width="110" height="26" as="geometry" />
        </mxCell>
        <mxCell id="JTU57aeXeBHjbI2O7M-v-24" value="" style="strokeWidth=1;shadow=0;dashed=0;align=center;html=1;shape=mxgraph.mockup.containers.anchor;rSize=0;fontSize=17;fontColor=#666666;align=left;" vertex="1" parent="JTU57aeXeBHjbI2O7M-v-22">
          <mxGeometry x="130" y="60" width="250" height="26" as="geometry" />
        </mxCell>
        <mxCell id="JTU57aeXeBHjbI2O7M-v-29" value="React App running in browser" style="rounded=0;whiteSpace=wrap;html=1;fontSize=15;fillColor=#fff2cc;strokeColor=#d6b656;fontStyle=1" vertex="1" parent="JTU57aeXeBHjbI2O7M-v-22">
          <mxGeometry x="60" y="120" width="190" height="140" as="geometry" />
        </mxCell>
        <mxCell id="JTU57aeXeBHjbI2O7M-v-27" value="Gimme posts + comments" style="rounded=0;whiteSpace=wrap;html=1;fillColor=#f8cecc;strokeColor=#b85450;fontStyle=1" vertex="1" parent="JTU57aeXeBHjbI2O7M-v-1">
          <mxGeometry x="530" y="490" width="120" height="27" as="geometry" />
        </mxCell>
        <mxCell id="xuyPbF0k3SRwkzDuX_RC-0" style="edgeStyle=orthogonalEdgeStyle;rounded=0;orthogonalLoop=1;jettySize=auto;html=1;exitX=1;exitY=0.75;exitDx=0;exitDy=0;" edge="1" parent="JTU57aeXeBHjbI2O7M-v-1" source="JTU57aeXeBHjbI2O7M-v-29" target="JTU57aeXeBHjbI2O7M-v-14">
          <mxGeometry relative="1" as="geometry" />
        </mxCell>
      </root>
    </mxGraphModel>
  </diagram>
  <diagram name="04 - option" id="8uPbLEKkAVqb2Km0ALRM">
    <mxGraphModel dx="858" dy="422" grid="1" gridSize="10" guides="1" tooltips="1" connect="1" arrows="1" fold="1" page="1" pageScale="1" pageWidth="1920" pageHeight="1200" math="0" shadow="0">
      <root>
        <mxCell id="9Vi8OA4f9qQnH-8tYCP0-0" />
        <mxCell id="9Vi8OA4f9qQnH-8tYCP0-1" parent="9Vi8OA4f9qQnH-8tYCP0-0" />
        <mxCell id="9Vi8OA4f9qQnH-8tYCP0-2" value="" style="rounded=0;whiteSpace=wrap;html=1;" vertex="1" parent="9Vi8OA4f9qQnH-8tYCP0-1">
          <mxGeometry x="680" y="260" width="400" height="400" as="geometry" />
        </mxCell>
        <mxCell id="9Vi8OA4f9qQnH-8tYCP0-3" value="Pod" style="rounded=0;whiteSpace=wrap;html=1;fontSize=19;fillColor=#e1d5e7;strokeColor=#9673a6;fontStyle=1" vertex="1" parent="9Vi8OA4f9qQnH-8tYCP0-1">
          <mxGeometry x="910" y="415" width="160" height="30" as="geometry" />
        </mxCell>
        <mxCell id="9Vi8OA4f9qQnH-8tYCP0-4" value="" style="rounded=0;whiteSpace=wrap;html=1;fontSize=19;fillColor=#e1d5e7;strokeColor=#9673a6;fontStyle=1" vertex="1" parent="9Vi8OA4f9qQnH-8tYCP0-1">
          <mxGeometry x="910" y="445" width="160" height="60" as="geometry" />
        </mxCell>
        <mxCell id="9Vi8OA4f9qQnH-8tYCP0-5" value="Event Bus" style="rounded=0;whiteSpace=wrap;html=1;fontSize=15;fontColor=#000000;" vertex="1" parent="9Vi8OA4f9qQnH-8tYCP0-1">
          <mxGeometry x="920" y="452" width="140" height="43" as="geometry" />
        </mxCell>
        <mxCell id="9Vi8OA4f9qQnH-8tYCP0-6" value="Pod" style="rounded=0;whiteSpace=wrap;html=1;fontSize=19;fillColor=#d5e8d4;strokeColor=#82b366;fontStyle=1" vertex="1" parent="9Vi8OA4f9qQnH-8tYCP0-1">
          <mxGeometry x="710" y="270" width="160" height="30" as="geometry" />
        </mxCell>
        <mxCell id="9Vi8OA4f9qQnH-8tYCP0-7" value="" style="rounded=0;whiteSpace=wrap;html=1;fontSize=19;fillColor=#d5e8d4;strokeColor=#82b366;fontStyle=1" vertex="1" parent="9Vi8OA4f9qQnH-8tYCP0-1">
          <mxGeometry x="710" y="300" width="160" height="60" as="geometry" />
        </mxCell>
        <mxCell id="9Vi8OA4f9qQnH-8tYCP0-8" value="Posts" style="rounded=0;whiteSpace=wrap;html=1;fontSize=15;fontColor=#000000;" vertex="1" parent="9Vi8OA4f9qQnH-8tYCP0-1">
          <mxGeometry x="720" y="307" width="140" height="43" as="geometry" />
        </mxCell>
        <mxCell id="9Vi8OA4f9qQnH-8tYCP0-9" value="Pod" style="rounded=0;whiteSpace=wrap;html=1;fontSize=19;fillColor=#d5e8d4;strokeColor=#82b366;fontStyle=1" vertex="1" parent="9Vi8OA4f9qQnH-8tYCP0-1">
          <mxGeometry x="710" y="365" width="160" height="30" as="geometry" />
        </mxCell>
        <mxCell id="9Vi8OA4f9qQnH-8tYCP0-10" value="" style="rounded=0;whiteSpace=wrap;html=1;fontSize=19;fillColor=#d5e8d4;strokeColor=#82b366;fontStyle=1" vertex="1" parent="9Vi8OA4f9qQnH-8tYCP0-1">
          <mxGeometry x="710" y="395" width="160" height="60" as="geometry" />
        </mxCell>
        <mxCell id="9Vi8OA4f9qQnH-8tYCP0-11" value="Comments" style="rounded=0;whiteSpace=wrap;html=1;fontSize=15;fontColor=#000000;" vertex="1" parent="9Vi8OA4f9qQnH-8tYCP0-1">
          <mxGeometry x="720" y="402" width="140" height="43" as="geometry" />
        </mxCell>
        <mxCell id="9Vi8OA4f9qQnH-8tYCP0-12" value="Pod" style="rounded=0;whiteSpace=wrap;html=1;fontSize=19;fillColor=#d5e8d4;strokeColor=#82b366;fontStyle=1" vertex="1" parent="9Vi8OA4f9qQnH-8tYCP0-1">
          <mxGeometry x="710" y="460" width="160" height="30" as="geometry" />
        </mxCell>
        <mxCell id="9Vi8OA4f9qQnH-8tYCP0-13" value="" style="rounded=0;whiteSpace=wrap;html=1;fontSize=19;fillColor=#d5e8d4;strokeColor=#82b366;fontStyle=1" vertex="1" parent="9Vi8OA4f9qQnH-8tYCP0-1">
          <mxGeometry x="710" y="490" width="160" height="60" as="geometry" />
        </mxCell>
        <mxCell id="9Vi8OA4f9qQnH-8tYCP0-14" value="Query" style="rounded=0;whiteSpace=wrap;html=1;fontSize=15;fontColor=#000000;" vertex="1" parent="9Vi8OA4f9qQnH-8tYCP0-1">
          <mxGeometry x="720" y="497" width="140" height="43" as="geometry" />
        </mxCell>
        <mxCell id="9Vi8OA4f9qQnH-8tYCP0-15" value="Pod" style="rounded=0;whiteSpace=wrap;html=1;fontSize=19;fillColor=#d5e8d4;strokeColor=#82b366;fontStyle=1" vertex="1" parent="9Vi8OA4f9qQnH-8tYCP0-1">
          <mxGeometry x="710" y="560" width="160" height="30" as="geometry" />
        </mxCell>
        <mxCell id="9Vi8OA4f9qQnH-8tYCP0-16" value="" style="rounded=0;whiteSpace=wrap;html=1;fontSize=19;fillColor=#d5e8d4;strokeColor=#82b366;fontStyle=1" vertex="1" parent="9Vi8OA4f9qQnH-8tYCP0-1">
          <mxGeometry x="710" y="590" width="160" height="60" as="geometry" />
        </mxCell>
        <mxCell id="9Vi8OA4f9qQnH-8tYCP0-17" value="Moderation" style="rounded=0;whiteSpace=wrap;html=1;fontSize=15;fontColor=#000000;" vertex="1" parent="9Vi8OA4f9qQnH-8tYCP0-1">
          <mxGeometry x="720" y="597" width="140" height="43" as="geometry" />
        </mxCell>
        <mxCell id="9Vi8OA4f9qQnH-8tYCP0-18" value="Pod" style="rounded=0;whiteSpace=wrap;html=1;fontSize=19;fillColor=#dae8fc;strokeColor=#6c8ebf;fontStyle=1" vertex="1" parent="9Vi8OA4f9qQnH-8tYCP0-1">
          <mxGeometry x="910" y="560" width="160" height="30" as="geometry" />
        </mxCell>
        <mxCell id="9Vi8OA4f9qQnH-8tYCP0-19" value="" style="rounded=0;whiteSpace=wrap;html=1;fontSize=19;fillColor=#dae8fc;strokeColor=#6c8ebf;fontStyle=1" vertex="1" parent="9Vi8OA4f9qQnH-8tYCP0-1">
          <mxGeometry x="910" y="590" width="160" height="60" as="geometry" />
        </mxCell>
        <mxCell id="9Vi8OA4f9qQnH-8tYCP0-20" value="React App Dev Server" style="rounded=0;whiteSpace=wrap;html=1;fontSize=15;fontColor=#000000;" vertex="1" parent="9Vi8OA4f9qQnH-8tYCP0-1">
          <mxGeometry x="920" y="597" width="140" height="43" as="geometry" />
        </mxCell>
        <mxCell id="9Vi8OA4f9qQnH-8tYCP0-21" value="Node" style="text;html=1;strokeColor=none;fillColor=none;align=center;verticalAlign=middle;whiteSpace=wrap;rounded=0;fontStyle=1" vertex="1" parent="9Vi8OA4f9qQnH-8tYCP0-1">
          <mxGeometry x="1040" y="260" width="40" height="20" as="geometry" />
        </mxCell>
        <mxCell id="9Vi8OA4f9qQnH-8tYCP0-22" value="" style="strokeWidth=1;shadow=0;dashed=0;align=center;html=1;shape=mxgraph.mockup.containers.browserWindow;rSize=0;strokeColor=#666666;strokeColor2=#008cff;strokeColor3=#c4c4c4;mainText=,;recursiveResize=0;" vertex="1" parent="9Vi8OA4f9qQnH-8tYCP0-1">
          <mxGeometry x="230" y="360" width="250" height="270" as="geometry" />
        </mxCell>
        <mxCell id="9Vi8OA4f9qQnH-8tYCP0-23" value="Page 1" style="strokeWidth=1;shadow=0;dashed=0;align=center;html=1;shape=mxgraph.mockup.containers.anchor;fontSize=17;fontColor=#666666;align=left;" vertex="1" parent="9Vi8OA4f9qQnH-8tYCP0-22">
          <mxGeometry x="60" y="12" width="110" height="26" as="geometry" />
        </mxCell>
        <mxCell id="9Vi8OA4f9qQnH-8tYCP0-24" value="" style="strokeWidth=1;shadow=0;dashed=0;align=center;html=1;shape=mxgraph.mockup.containers.anchor;rSize=0;fontSize=17;fontColor=#666666;align=left;" vertex="1" parent="9Vi8OA4f9qQnH-8tYCP0-22">
          <mxGeometry x="130" y="60" width="250" height="26" as="geometry" />
        </mxCell>
        <mxCell id="9Vi8OA4f9qQnH-8tYCP0-25" value="React App running in browser" style="rounded=0;whiteSpace=wrap;html=1;fontSize=15;fillColor=#fff2cc;strokeColor=#d6b656;fontStyle=1" vertex="1" parent="9Vi8OA4f9qQnH-8tYCP0-22">
          <mxGeometry x="60" y="120" width="190" height="140" as="geometry" />
        </mxCell>
        <mxCell id="9Vi8OA4f9qQnH-8tYCP0-26" value="Option #1 - Probably not good" style="rounded=0;whiteSpace=wrap;html=1;fillColor=#f8cecc;strokeColor=#b85450;fontStyle=1;fontSize=19;" vertex="1" parent="9Vi8OA4f9qQnH-8tYCP0-1">
          <mxGeometry x="240" y="252" width="230" height="47" as="geometry" />
        </mxCell>
        <mxCell id="9Vi8OA4f9qQnH-8tYCP0-28" value="Node Port" style="rounded=0;whiteSpace=wrap;html=1;fontStyle=1;fillColor=#f5f5f5;strokeColor=#666666;fontColor=#333333;fontSize=20;" vertex="1" parent="9Vi8OA4f9qQnH-8tYCP0-1">
          <mxGeometry x="590" y="290" width="120" height="60" as="geometry" />
        </mxCell>
        <mxCell id="9Vi8OA4f9qQnH-8tYCP0-29" value="Node Port" style="rounded=0;whiteSpace=wrap;html=1;fontStyle=1;fillColor=#f5f5f5;strokeColor=#666666;fontColor=#333333;fontSize=20;" vertex="1" parent="9Vi8OA4f9qQnH-8tYCP0-1">
          <mxGeometry x="590" y="385" width="120" height="60" as="geometry" />
        </mxCell>
        <mxCell id="9Vi8OA4f9qQnH-8tYCP0-30" value="Node Port" style="rounded=0;whiteSpace=wrap;html=1;fontStyle=1;fillColor=#f5f5f5;strokeColor=#666666;fontColor=#333333;fontSize=20;" vertex="1" parent="9Vi8OA4f9qQnH-8tYCP0-1">
          <mxGeometry x="590" y="480" width="120" height="60" as="geometry" />
        </mxCell>
        <mxCell id="9Vi8OA4f9qQnH-8tYCP0-31" value="Node Port" style="rounded=0;whiteSpace=wrap;html=1;fontStyle=1;fillColor=#f5f5f5;strokeColor=#666666;fontColor=#333333;fontSize=20;" vertex="1" parent="9Vi8OA4f9qQnH-8tYCP0-1">
          <mxGeometry x="590" y="580" width="120" height="60" as="geometry" />
        </mxCell>
        <mxCell id="9Vi8OA4f9qQnH-8tYCP0-32" style="edgeStyle=orthogonalEdgeStyle;rounded=0;orthogonalLoop=1;jettySize=auto;html=1;exitX=1;exitY=0.5;exitDx=0;exitDy=0;entryX=0;entryY=0.5;entryDx=0;entryDy=0;fontSize=19;" edge="1" parent="9Vi8OA4f9qQnH-8tYCP0-1" source="9Vi8OA4f9qQnH-8tYCP0-25" target="9Vi8OA4f9qQnH-8tYCP0-28">
          <mxGeometry relative="1" as="geometry" />
        </mxCell>
        <mxCell id="9Vi8OA4f9qQnH-8tYCP0-33" style="edgeStyle=orthogonalEdgeStyle;rounded=0;orthogonalLoop=1;jettySize=auto;html=1;exitX=1;exitY=0.5;exitDx=0;exitDy=0;entryX=0;entryY=0.5;entryDx=0;entryDy=0;fontSize=19;" edge="1" parent="9Vi8OA4f9qQnH-8tYCP0-1" source="9Vi8OA4f9qQnH-8tYCP0-25" target="9Vi8OA4f9qQnH-8tYCP0-29">
          <mxGeometry relative="1" as="geometry" />
        </mxCell>
        <mxCell id="9Vi8OA4f9qQnH-8tYCP0-34" style="edgeStyle=orthogonalEdgeStyle;rounded=0;orthogonalLoop=1;jettySize=auto;html=1;exitX=1;exitY=0.5;exitDx=0;exitDy=0;fontSize=19;" edge="1" parent="9Vi8OA4f9qQnH-8tYCP0-1" source="9Vi8OA4f9qQnH-8tYCP0-25" target="9Vi8OA4f9qQnH-8tYCP0-30">
          <mxGeometry relative="1" as="geometry" />
        </mxCell>
        <mxCell id="9Vi8OA4f9qQnH-8tYCP0-35" style="edgeStyle=orthogonalEdgeStyle;rounded=0;orthogonalLoop=1;jettySize=auto;html=1;exitX=1;exitY=0.5;exitDx=0;exitDy=0;entryX=0;entryY=0.5;entryDx=0;entryDy=0;fontSize=19;" edge="1" parent="9Vi8OA4f9qQnH-8tYCP0-1" source="9Vi8OA4f9qQnH-8tYCP0-25" target="9Vi8OA4f9qQnH-8tYCP0-31">
          <mxGeometry relative="1" as="geometry" />
        </mxCell>
      </root>
    </mxGraphModel>
  </diagram>
  <diagram name="05 - option" id="ZCkklGo_SUf12BaH64po">
    <mxGraphModel dx="939" dy="462" grid="1" gridSize="10" guides="1" tooltips="1" connect="1" arrows="1" fold="1" page="1" pageScale="1" pageWidth="1920" pageHeight="1200" math="0" shadow="0">
      <root>
        <mxCell id="nK4xBnVDH3yGGKp1cJKu-0" />
        <mxCell id="nK4xBnVDH3yGGKp1cJKu-1" parent="nK4xBnVDH3yGGKp1cJKu-0" />
        <mxCell id="nK4xBnVDH3yGGKp1cJKu-2" value="" style="rounded=0;whiteSpace=wrap;html=1;" vertex="1" parent="nK4xBnVDH3yGGKp1cJKu-1">
          <mxGeometry x="560" y="260" width="520" height="400" as="geometry" />
        </mxCell>
        <mxCell id="nK4xBnVDH3yGGKp1cJKu-3" value="Pod" style="rounded=0;whiteSpace=wrap;html=1;fontSize=19;fillColor=#e1d5e7;strokeColor=#9673a6;fontStyle=1" vertex="1" parent="nK4xBnVDH3yGGKp1cJKu-1">
          <mxGeometry x="910" y="415" width="160" height="30" as="geometry" />
        </mxCell>
        <mxCell id="nK4xBnVDH3yGGKp1cJKu-4" value="" style="rounded=0;whiteSpace=wrap;html=1;fontSize=19;fillColor=#e1d5e7;strokeColor=#9673a6;fontStyle=1" vertex="1" parent="nK4xBnVDH3yGGKp1cJKu-1">
          <mxGeometry x="910" y="445" width="160" height="60" as="geometry" />
        </mxCell>
        <mxCell id="nK4xBnVDH3yGGKp1cJKu-5" value="Event Bus" style="rounded=0;whiteSpace=wrap;html=1;fontSize=15;fontColor=#000000;" vertex="1" parent="nK4xBnVDH3yGGKp1cJKu-1">
          <mxGeometry x="920" y="452" width="140" height="43" as="geometry" />
        </mxCell>
        <mxCell id="nK4xBnVDH3yGGKp1cJKu-6" value="Pod" style="rounded=0;whiteSpace=wrap;html=1;fontSize=19;fillColor=#d5e8d4;strokeColor=#82b366;fontStyle=1" vertex="1" parent="nK4xBnVDH3yGGKp1cJKu-1">
          <mxGeometry x="710" y="270" width="160" height="30" as="geometry" />
        </mxCell>
        <mxCell id="nK4xBnVDH3yGGKp1cJKu-7" value="" style="rounded=0;whiteSpace=wrap;html=1;fontSize=19;fillColor=#d5e8d4;strokeColor=#82b366;fontStyle=1" vertex="1" parent="nK4xBnVDH3yGGKp1cJKu-1">
          <mxGeometry x="710" y="300" width="160" height="60" as="geometry" />
        </mxCell>
        <mxCell id="nK4xBnVDH3yGGKp1cJKu-8" value="Posts" style="rounded=0;whiteSpace=wrap;html=1;fontSize=15;fontColor=#000000;" vertex="1" parent="nK4xBnVDH3yGGKp1cJKu-1">
          <mxGeometry x="720" y="307" width="140" height="43" as="geometry" />
        </mxCell>
        <mxCell id="nK4xBnVDH3yGGKp1cJKu-9" value="Pod" style="rounded=0;whiteSpace=wrap;html=1;fontSize=19;fillColor=#d5e8d4;strokeColor=#82b366;fontStyle=1" vertex="1" parent="nK4xBnVDH3yGGKp1cJKu-1">
          <mxGeometry x="710" y="365" width="160" height="30" as="geometry" />
        </mxCell>
        <mxCell id="nK4xBnVDH3yGGKp1cJKu-10" value="" style="rounded=0;whiteSpace=wrap;html=1;fontSize=19;fillColor=#d5e8d4;strokeColor=#82b366;fontStyle=1" vertex="1" parent="nK4xBnVDH3yGGKp1cJKu-1">
          <mxGeometry x="710" y="395" width="160" height="60" as="geometry" />
        </mxCell>
        <mxCell id="nK4xBnVDH3yGGKp1cJKu-11" value="Comments" style="rounded=0;whiteSpace=wrap;html=1;fontSize=15;fontColor=#000000;" vertex="1" parent="nK4xBnVDH3yGGKp1cJKu-1">
          <mxGeometry x="720" y="402" width="140" height="43" as="geometry" />
        </mxCell>
        <mxCell id="nK4xBnVDH3yGGKp1cJKu-12" value="Pod" style="rounded=0;whiteSpace=wrap;html=1;fontSize=19;fillColor=#d5e8d4;strokeColor=#82b366;fontStyle=1" vertex="1" parent="nK4xBnVDH3yGGKp1cJKu-1">
          <mxGeometry x="710" y="460" width="160" height="30" as="geometry" />
        </mxCell>
        <mxCell id="nK4xBnVDH3yGGKp1cJKu-13" value="" style="rounded=0;whiteSpace=wrap;html=1;fontSize=19;fillColor=#d5e8d4;strokeColor=#82b366;fontStyle=1" vertex="1" parent="nK4xBnVDH3yGGKp1cJKu-1">
          <mxGeometry x="710" y="490" width="160" height="60" as="geometry" />
        </mxCell>
        <mxCell id="nK4xBnVDH3yGGKp1cJKu-14" value="Query" style="rounded=0;whiteSpace=wrap;html=1;fontSize=15;fontColor=#000000;" vertex="1" parent="nK4xBnVDH3yGGKp1cJKu-1">
          <mxGeometry x="720" y="497" width="140" height="43" as="geometry" />
        </mxCell>
        <mxCell id="nK4xBnVDH3yGGKp1cJKu-15" value="Pod" style="rounded=0;whiteSpace=wrap;html=1;fontSize=19;fillColor=#d5e8d4;strokeColor=#82b366;fontStyle=1" vertex="1" parent="nK4xBnVDH3yGGKp1cJKu-1">
          <mxGeometry x="710" y="560" width="160" height="30" as="geometry" />
        </mxCell>
        <mxCell id="nK4xBnVDH3yGGKp1cJKu-16" value="" style="rounded=0;whiteSpace=wrap;html=1;fontSize=19;fillColor=#d5e8d4;strokeColor=#82b366;fontStyle=1" vertex="1" parent="nK4xBnVDH3yGGKp1cJKu-1">
          <mxGeometry x="710" y="590" width="160" height="60" as="geometry" />
        </mxCell>
        <mxCell id="nK4xBnVDH3yGGKp1cJKu-17" value="Moderation" style="rounded=0;whiteSpace=wrap;html=1;fontSize=15;fontColor=#000000;" vertex="1" parent="nK4xBnVDH3yGGKp1cJKu-1">
          <mxGeometry x="720" y="597" width="140" height="43" as="geometry" />
        </mxCell>
        <mxCell id="nK4xBnVDH3yGGKp1cJKu-18" value="Pod" style="rounded=0;whiteSpace=wrap;html=1;fontSize=19;fillColor=#dae8fc;strokeColor=#6c8ebf;fontStyle=1" vertex="1" parent="nK4xBnVDH3yGGKp1cJKu-1">
          <mxGeometry x="910" y="560" width="160" height="30" as="geometry" />
        </mxCell>
        <mxCell id="nK4xBnVDH3yGGKp1cJKu-19" value="" style="rounded=0;whiteSpace=wrap;html=1;fontSize=19;fillColor=#dae8fc;strokeColor=#6c8ebf;fontStyle=1" vertex="1" parent="nK4xBnVDH3yGGKp1cJKu-1">
          <mxGeometry x="910" y="590" width="160" height="60" as="geometry" />
        </mxCell>
        <mxCell id="nK4xBnVDH3yGGKp1cJKu-20" value="React App Dev Server" style="rounded=0;whiteSpace=wrap;html=1;fontSize=15;fontColor=#000000;" vertex="1" parent="nK4xBnVDH3yGGKp1cJKu-1">
          <mxGeometry x="920" y="597" width="140" height="43" as="geometry" />
        </mxCell>
        <mxCell id="nK4xBnVDH3yGGKp1cJKu-21" value="Node" style="text;html=1;strokeColor=none;fillColor=none;align=center;verticalAlign=middle;whiteSpace=wrap;rounded=0;fontStyle=1" vertex="1" parent="nK4xBnVDH3yGGKp1cJKu-1">
          <mxGeometry x="1040" y="260" width="40" height="20" as="geometry" />
        </mxCell>
        <mxCell id="nK4xBnVDH3yGGKp1cJKu-22" value="" style="strokeWidth=1;shadow=0;dashed=0;align=center;html=1;shape=mxgraph.mockup.containers.browserWindow;rSize=0;strokeColor=#666666;strokeColor2=#008cff;strokeColor3=#c4c4c4;mainText=,;recursiveResize=0;" vertex="1" parent="nK4xBnVDH3yGGKp1cJKu-1">
          <mxGeometry x="150" y="360" width="250" height="270" as="geometry" />
        </mxCell>
        <mxCell id="nK4xBnVDH3yGGKp1cJKu-23" value="Page 1" style="strokeWidth=1;shadow=0;dashed=0;align=center;html=1;shape=mxgraph.mockup.containers.anchor;fontSize=17;fontColor=#666666;align=left;" vertex="1" parent="nK4xBnVDH3yGGKp1cJKu-22">
          <mxGeometry x="60" y="12" width="110" height="26" as="geometry" />
        </mxCell>
        <mxCell id="nK4xBnVDH3yGGKp1cJKu-24" value="" style="strokeWidth=1;shadow=0;dashed=0;align=center;html=1;shape=mxgraph.mockup.containers.anchor;rSize=0;fontSize=17;fontColor=#666666;align=left;" vertex="1" parent="nK4xBnVDH3yGGKp1cJKu-22">
          <mxGeometry x="130" y="60" width="250" height="26" as="geometry" />
        </mxCell>
        <mxCell id="nK4xBnVDH3yGGKp1cJKu-25" value="React App running in browser" style="rounded=0;whiteSpace=wrap;html=1;fontSize=15;fillColor=#fff2cc;strokeColor=#d6b656;fontStyle=1" vertex="1" parent="nK4xBnVDH3yGGKp1cJKu-22">
          <mxGeometry x="60" y="120" width="190" height="140" as="geometry" />
        </mxCell>
        <mxCell id="nK4xBnVDH3yGGKp1cJKu-26" value="Option #2 - Probably Good!" style="rounded=0;whiteSpace=wrap;html=1;fillColor=#f8cecc;strokeColor=#b85450;fontStyle=1;fontSize=19;" vertex="1" parent="nK4xBnVDH3yGGKp1cJKu-1">
          <mxGeometry x="140" y="270" width="280" height="60" as="geometry" />
        </mxCell>
        <mxCell id="nK4xBnVDH3yGGKp1cJKu-35" value="Cluster IP" style="rounded=0;whiteSpace=wrap;html=1;fontSize=16;fillColor=#f5f5f5;strokeColor=#666666;fontColor=#333333;" vertex="1" parent="nK4xBnVDH3yGGKp1cJKu-1">
          <mxGeometry x="650" y="270" width="60" height="90" as="geometry" />
        </mxCell>
        <mxCell id="nK4xBnVDH3yGGKp1cJKu-36" value="Cluster IP" style="rounded=0;whiteSpace=wrap;html=1;fontSize=16;fillColor=#f5f5f5;strokeColor=#666666;fontColor=#333333;" vertex="1" parent="nK4xBnVDH3yGGKp1cJKu-1">
          <mxGeometry x="650" y="460" width="60" height="90" as="geometry" />
        </mxCell>
        <mxCell id="nK4xBnVDH3yGGKp1cJKu-37" value="Cluster IP" style="rounded=0;whiteSpace=wrap;html=1;fontSize=16;fillColor=#f5f5f5;strokeColor=#666666;fontColor=#333333;" vertex="1" parent="nK4xBnVDH3yGGKp1cJKu-1">
          <mxGeometry x="650" y="365" width="60" height="90" as="geometry" />
        </mxCell>
        <mxCell id="nK4xBnVDH3yGGKp1cJKu-38" value="Cluster IP" style="rounded=0;whiteSpace=wrap;html=1;fontSize=16;fillColor=#f5f5f5;strokeColor=#666666;fontColor=#333333;" vertex="1" parent="nK4xBnVDH3yGGKp1cJKu-1">
          <mxGeometry x="650" y="560" width="60" height="90" as="geometry" />
        </mxCell>
        <mxCell id="nK4xBnVDH3yGGKp1cJKu-41" style="edgeStyle=orthogonalEdgeStyle;rounded=0;orthogonalLoop=1;jettySize=auto;html=1;exitX=1;exitY=0.5;exitDx=0;exitDy=0;entryX=0;entryY=0.5;entryDx=0;entryDy=0;fontSize=16;" edge="1" parent="nK4xBnVDH3yGGKp1cJKu-1" source="nK4xBnVDH3yGGKp1cJKu-39" target="nK4xBnVDH3yGGKp1cJKu-35">
          <mxGeometry relative="1" as="geometry" />
        </mxCell>
        <mxCell id="nK4xBnVDH3yGGKp1cJKu-42" style="edgeStyle=orthogonalEdgeStyle;rounded=0;orthogonalLoop=1;jettySize=auto;html=1;exitX=1;exitY=0.5;exitDx=0;exitDy=0;entryX=0;entryY=0.5;entryDx=0;entryDy=0;fontSize=16;" edge="1" parent="nK4xBnVDH3yGGKp1cJKu-1" source="nK4xBnVDH3yGGKp1cJKu-39" target="nK4xBnVDH3yGGKp1cJKu-36">
          <mxGeometry relative="1" as="geometry" />
        </mxCell>
        <mxCell id="nK4xBnVDH3yGGKp1cJKu-43" style="edgeStyle=orthogonalEdgeStyle;rounded=0;orthogonalLoop=1;jettySize=auto;html=1;exitX=1;exitY=0.5;exitDx=0;exitDy=0;fontSize=16;" edge="1" parent="nK4xBnVDH3yGGKp1cJKu-1" source="nK4xBnVDH3yGGKp1cJKu-39" target="nK4xBnVDH3yGGKp1cJKu-37">
          <mxGeometry relative="1" as="geometry" />
        </mxCell>
        <mxCell id="nK4xBnVDH3yGGKp1cJKu-44" style="edgeStyle=orthogonalEdgeStyle;rounded=0;orthogonalLoop=1;jettySize=auto;html=1;exitX=1;exitY=0.5;exitDx=0;exitDy=0;entryX=0;entryY=0.5;entryDx=0;entryDy=0;fontSize=16;" edge="1" parent="nK4xBnVDH3yGGKp1cJKu-1" source="nK4xBnVDH3yGGKp1cJKu-39" target="nK4xBnVDH3yGGKp1cJKu-38">
          <mxGeometry relative="1" as="geometry" />
        </mxCell>
        <mxCell id="nK4xBnVDH3yGGKp1cJKu-39" value="Load Balancer Service" style="rounded=0;whiteSpace=wrap;html=1;fontSize=16;fillColor=#f5f5f5;strokeColor=#666666;fontColor=#333333;fontStyle=1" vertex="1" parent="nK4xBnVDH3yGGKp1cJKu-1">
          <mxGeometry x="490" y="415" width="100" height="90" as="geometry" />
        </mxCell>
        <mxCell id="nK4xBnVDH3yGGKp1cJKu-40" style="edgeStyle=orthogonalEdgeStyle;rounded=0;orthogonalLoop=1;jettySize=auto;html=1;exitX=1;exitY=0.5;exitDx=0;exitDy=0;fontSize=16;" edge="1" parent="nK4xBnVDH3yGGKp1cJKu-1" source="nK4xBnVDH3yGGKp1cJKu-25" target="nK4xBnVDH3yGGKp1cJKu-39">
          <mxGeometry relative="1" as="geometry" />
        </mxCell>
      </root>
    </mxGraphModel>
  </diagram>
  <diagram id="Mb03uuXK8m0oZ60Z_Ow2" name="07 - term">
    <mxGraphModel dx="601" dy="296" grid="1" gridSize="10" guides="1" tooltips="1" connect="1" arrows="1" fold="1" page="1" pageScale="1" pageWidth="1920" pageHeight="1200" math="0" shadow="0">
      <root>
        <mxCell id="yhu8BSWb5o2GoHGQDsUq-0" />
        <mxCell id="yhu8BSWb5o2GoHGQDsUq-1" parent="yhu8BSWb5o2GoHGQDsUq-0" />
        <mxCell id="yhu8BSWb5o2GoHGQDsUq-3" value="&lt;b&gt;Ingress &lt;/b&gt;&lt;br&gt;or&lt;br&gt;&lt;b&gt;Ingress Controller&lt;/b&gt;" style="rounded=0;whiteSpace=wrap;html=1;fontSize=22;align=center;fillColor=#dae8fc;strokeColor=#6c8ebf;" vertex="1" parent="yhu8BSWb5o2GoHGQDsUq-1">
          <mxGeometry x="580" y="380" width="220" height="100" as="geometry" />
        </mxCell>
        <mxCell id="yhu8BSWb5o2GoHGQDsUq-4" value="Load Balancer Service" style="rounded=0;whiteSpace=wrap;html=1;fontSize=22;align=center;fillColor=#dae8fc;strokeColor=#6c8ebf;fontStyle=1" vertex="1" parent="yhu8BSWb5o2GoHGQDsUq-1">
          <mxGeometry x="580" y="270" width="220" height="100" as="geometry" />
        </mxCell>
        <mxCell id="yhu8BSWb5o2GoHGQDsUq-7" value="" style="shape=curlyBracket;whiteSpace=wrap;html=1;rounded=1;fontSize=22;align=center;rotation=-180;" vertex="1" parent="yhu8BSWb5o2GoHGQDsUq-1">
          <mxGeometry x="810" y="270" width="30" height="100" as="geometry" />
        </mxCell>
        <mxCell id="yhu8BSWb5o2GoHGQDsUq-8" value="" style="shape=curlyBracket;whiteSpace=wrap;html=1;rounded=1;fontSize=22;align=center;rotation=-180;" vertex="1" parent="yhu8BSWb5o2GoHGQDsUq-1">
          <mxGeometry x="810" y="380" width="30" height="100" as="geometry" />
        </mxCell>
        <mxCell id="yhu8BSWb5o2GoHGQDsUq-9" value="Tells Kubernetes to reach out to its provider and provision a load balancer.&amp;nbsp; Gets traffic in to a &lt;i&gt;single pod&lt;/i&gt;" style="text;html=1;strokeColor=none;fillColor=none;align=left;verticalAlign=middle;whiteSpace=wrap;rounded=0;fontSize=17;" vertex="1" parent="yhu8BSWb5o2GoHGQDsUq-1">
          <mxGeometry x="840" y="290" width="230" height="60" as="geometry" />
        </mxCell>
        <mxCell id="yhu8BSWb5o2GoHGQDsUq-10" value="A pod with a set of routing rules to distribute traffic to other services" style="text;html=1;strokeColor=none;fillColor=none;align=left;verticalAlign=middle;whiteSpace=wrap;rounded=0;fontSize=17;" vertex="1" parent="yhu8BSWb5o2GoHGQDsUq-1">
          <mxGeometry x="840" y="400" width="230" height="60" as="geometry" />
        </mxCell>
      </root>
    </mxGraphModel>
  </diagram>
  <diagram name="06 - lb" id="hbd3wyC95y_4Qd1bw9Va">
    <mxGraphModel dx="939" dy="462" grid="1" gridSize="10" guides="1" tooltips="1" connect="1" arrows="1" fold="1" page="1" pageScale="1" pageWidth="1920" pageHeight="1200" math="0" shadow="0">
      <root>
        <mxCell id="VXI7vS6LgwruljY9FcBS-0" />
        <mxCell id="VXI7vS6LgwruljY9FcBS-1" parent="VXI7vS6LgwruljY9FcBS-0" />
        <mxCell id="VXI7vS6LgwruljY9FcBS-37" value="" style="rounded=0;whiteSpace=wrap;html=1;fontSize=16;fillColor=#f5f5f5;strokeColor=#666666;fontColor=#333333;" vertex="1" parent="VXI7vS6LgwruljY9FcBS-1">
          <mxGeometry x="430" y="290" width="530" height="280" as="geometry" />
        </mxCell>
        <mxCell id="VXI7vS6LgwruljY9FcBS-38" value="" style="rounded=0;whiteSpace=wrap;html=1;fontSize=30;fillColor=#dae8fc;strokeColor=#6c8ebf;fontStyle=1" vertex="1" parent="VXI7vS6LgwruljY9FcBS-1">
          <mxGeometry x="590" y="360" width="320" height="190" as="geometry" />
        </mxCell>
        <mxCell id="VXI7vS6LgwruljY9FcBS-39" value="&lt;b style=&quot;font-size: 19px;&quot;&gt;Cloud Provider (AWS, GC, Azure)&lt;/b&gt;" style="text;html=1;strokeColor=none;fillColor=none;align=center;verticalAlign=middle;whiteSpace=wrap;rounded=0;fontSize=19;" vertex="1" parent="VXI7vS6LgwruljY9FcBS-1">
          <mxGeometry x="430" y="300" width="310" height="20" as="geometry" />
        </mxCell>
        <mxCell id="4Bc2ELkLytOYIEZHiQj5-3" style="edgeStyle=orthogonalEdgeStyle;rounded=0;orthogonalLoop=1;jettySize=auto;html=1;exitX=1;exitY=0.5;exitDx=0;exitDy=0;entryX=0;entryY=0.5;entryDx=0;entryDy=0;fontSize=17;" edge="1" parent="VXI7vS6LgwruljY9FcBS-1" source="VXI7vS6LgwruljY9FcBS-40" target="VXI7vS6LgwruljY9FcBS-42">
          <mxGeometry relative="1" as="geometry" />
        </mxCell>
        <mxCell id="VXI7vS6LgwruljY9FcBS-40" value="Outside World" style="rounded=0;whiteSpace=wrap;html=1;fontSize=25;fontStyle=1" vertex="1" parent="VXI7vS6LgwruljY9FcBS-1">
          <mxGeometry x="220" y="290" width="130" height="280" as="geometry" />
        </mxCell>
        <mxCell id="4Bc2ELkLytOYIEZHiQj5-1" style="edgeStyle=orthogonalEdgeStyle;rounded=0;orthogonalLoop=1;jettySize=auto;html=1;exitX=0.5;exitY=0;exitDx=0;exitDy=0;entryX=0.5;entryY=1;entryDx=0;entryDy=0;fontSize=17;" edge="1" parent="VXI7vS6LgwruljY9FcBS-1" source="VXI7vS6LgwruljY9FcBS-41" target="VXI7vS6LgwruljY9FcBS-38">
          <mxGeometry relative="1" as="geometry" />
        </mxCell>
        <mxCell id="VXI7vS6LgwruljY9FcBS-41" value="Config file for a LoadBalancer Service" style="rounded=0;whiteSpace=wrap;html=1;fontSize=22;fillColor=#f8cecc;strokeColor=#b85450;" vertex="1" parent="VXI7vS6LgwruljY9FcBS-1">
          <mxGeometry x="605" y="620" width="290" height="60" as="geometry" />
        </mxCell>
        <mxCell id="4Bc2ELkLytOYIEZHiQj5-4" style="edgeStyle=orthogonalEdgeStyle;rounded=0;orthogonalLoop=1;jettySize=auto;html=1;exitX=1;exitY=0.5;exitDx=0;exitDy=0;fontSize=17;" edge="1" parent="VXI7vS6LgwruljY9FcBS-1" source="VXI7vS6LgwruljY9FcBS-42" target="VXI7vS6LgwruljY9FcBS-44">
          <mxGeometry relative="1" as="geometry" />
        </mxCell>
        <mxCell id="VXI7vS6LgwruljY9FcBS-42" value="Load Balancer" style="rounded=0;whiteSpace=wrap;html=1;fontSize=22;fillColor=#d5e8d4;strokeColor=#82b366;fontStyle=1" vertex="1" parent="VXI7vS6LgwruljY9FcBS-1">
          <mxGeometry x="410" y="425" width="130" height="60" as="geometry" />
        </mxCell>
        <mxCell id="4Bc2ELkLytOYIEZHiQj5-2" style="edgeStyle=orthogonalEdgeStyle;rounded=0;orthogonalLoop=1;jettySize=auto;html=1;exitX=0.5;exitY=0;exitDx=0;exitDy=0;entryX=0.5;entryY=1;entryDx=0;entryDy=0;fontSize=17;" edge="1" parent="VXI7vS6LgwruljY9FcBS-1" source="VXI7vS6LgwruljY9FcBS-43" target="VXI7vS6LgwruljY9FcBS-39">
          <mxGeometry relative="1" as="geometry" />
        </mxCell>
        <mxCell id="VXI7vS6LgwruljY9FcBS-43" value="Our Cluster" style="text;html=1;fontSize=22;align=center;fontStyle=1" vertex="1" parent="VXI7vS6LgwruljY9FcBS-1">
          <mxGeometry x="755" y="435" width="140" height="40" as="geometry" />
        </mxCell>
        <mxCell id="VXI7vS6LgwruljY9FcBS-44" value="Some Pod" style="rounded=0;whiteSpace=wrap;html=1;fontSize=22;fillColor=#ffe6cc;strokeColor=#d79b00;fontStyle=1" vertex="1" parent="VXI7vS6LgwruljY9FcBS-1">
          <mxGeometry x="620" y="425" width="100" height="60" as="geometry" />
        </mxCell>
      </root>
    </mxGraphModel>
  </diagram>
  <diagram name="07 - lb" id="pw1TvUNdCGWhS8xgAZZT">
    <mxGraphModel dx="791" dy="389" grid="1" gridSize="10" guides="1" tooltips="1" connect="1" arrows="1" fold="1" page="1" pageScale="1" pageWidth="1920" pageHeight="1200" math="0" shadow="0">
      <root>
        <mxCell id="G6ygZOddTMhaDp_n0CKD-0" />
        <mxCell id="G6ygZOddTMhaDp_n0CKD-1" parent="G6ygZOddTMhaDp_n0CKD-0" />
        <mxCell id="G6ygZOddTMhaDp_n0CKD-2" value="" style="rounded=0;whiteSpace=wrap;html=1;fontSize=16;fillColor=#f5f5f5;strokeColor=#666666;fontColor=#333333;" vertex="1" parent="G6ygZOddTMhaDp_n0CKD-1">
          <mxGeometry x="430" y="290" width="530" height="280" as="geometry" />
        </mxCell>
        <mxCell id="G6ygZOddTMhaDp_n0CKD-3" value="" style="rounded=0;whiteSpace=wrap;html=1;fontSize=30;fillColor=#dae8fc;strokeColor=#6c8ebf;fontStyle=1" vertex="1" parent="G6ygZOddTMhaDp_n0CKD-1">
          <mxGeometry x="560" y="360" width="350" height="190" as="geometry" />
        </mxCell>
        <mxCell id="G6ygZOddTMhaDp_n0CKD-4" value="&lt;b style=&quot;font-size: 19px;&quot;&gt;Cloud Provider (AWS, GC, Azure)&lt;/b&gt;" style="text;html=1;strokeColor=none;fillColor=none;align=center;verticalAlign=middle;whiteSpace=wrap;rounded=0;fontSize=19;" vertex="1" parent="G6ygZOddTMhaDp_n0CKD-1">
          <mxGeometry x="430" y="300" width="310" height="20" as="geometry" />
        </mxCell>
        <mxCell id="pivSwTKS02JTz8LosI1I-0" style="edgeStyle=orthogonalEdgeStyle;rounded=0;orthogonalLoop=1;jettySize=auto;html=1;exitX=1;exitY=0.5;exitDx=0;exitDy=0;entryX=0;entryY=0.5;entryDx=0;entryDy=0;fontSize=17;" edge="1" parent="G6ygZOddTMhaDp_n0CKD-1" source="G6ygZOddTMhaDp_n0CKD-5" target="G6ygZOddTMhaDp_n0CKD-7">
          <mxGeometry relative="1" as="geometry" />
        </mxCell>
        <mxCell id="G6ygZOddTMhaDp_n0CKD-5" value="Outside World" style="rounded=0;whiteSpace=wrap;html=1;fontSize=25;fontStyle=1" vertex="1" parent="G6ygZOddTMhaDp_n0CKD-1">
          <mxGeometry x="220" y="290" width="130" height="280" as="geometry" />
        </mxCell>
        <mxCell id="pivSwTKS02JTz8LosI1I-1" style="edgeStyle=orthogonalEdgeStyle;rounded=0;orthogonalLoop=1;jettySize=auto;html=1;exitX=1;exitY=0.5;exitDx=0;exitDy=0;fontSize=17;" edge="1" parent="G6ygZOddTMhaDp_n0CKD-1" source="G6ygZOddTMhaDp_n0CKD-7" target="G6ygZOddTMhaDp_n0CKD-9">
          <mxGeometry relative="1" as="geometry" />
        </mxCell>
        <mxCell id="G6ygZOddTMhaDp_n0CKD-7" value="Load Balancer" style="rounded=0;whiteSpace=wrap;html=1;fontSize=22;fillColor=#d5e8d4;strokeColor=#82b366;fontStyle=1" vertex="1" parent="G6ygZOddTMhaDp_n0CKD-1">
          <mxGeometry x="390" y="425" width="130" height="60" as="geometry" />
        </mxCell>
        <mxCell id="pivSwTKS02JTz8LosI1I-2" style="edgeStyle=orthogonalEdgeStyle;rounded=0;orthogonalLoop=1;jettySize=auto;html=1;exitX=1;exitY=0.5;exitDx=0;exitDy=0;entryX=0;entryY=0.5;entryDx=0;entryDy=0;fontSize=17;" edge="1" parent="G6ygZOddTMhaDp_n0CKD-1" source="G6ygZOddTMhaDp_n0CKD-9" target="G6ygZOddTMhaDp_n0CKD-10">
          <mxGeometry relative="1" as="geometry" />
        </mxCell>
        <mxCell id="pivSwTKS02JTz8LosI1I-3" style="edgeStyle=orthogonalEdgeStyle;rounded=0;orthogonalLoop=1;jettySize=auto;html=1;exitX=1;exitY=0.5;exitDx=0;exitDy=0;fontSize=17;" edge="1" parent="G6ygZOddTMhaDp_n0CKD-1" source="G6ygZOddTMhaDp_n0CKD-9" target="G6ygZOddTMhaDp_n0CKD-14">
          <mxGeometry relative="1" as="geometry" />
        </mxCell>
        <mxCell id="pivSwTKS02JTz8LosI1I-4" style="edgeStyle=orthogonalEdgeStyle;rounded=0;orthogonalLoop=1;jettySize=auto;html=1;exitX=1;exitY=0.5;exitDx=0;exitDy=0;fontSize=17;" edge="1" parent="G6ygZOddTMhaDp_n0CKD-1" source="G6ygZOddTMhaDp_n0CKD-9" target="G6ygZOddTMhaDp_n0CKD-15">
          <mxGeometry relative="1" as="geometry" />
        </mxCell>
        <mxCell id="G6ygZOddTMhaDp_n0CKD-9" value="Ingress Controller" style="rounded=0;whiteSpace=wrap;html=1;fontSize=22;fillColor=#ffe6cc;strokeColor=#d79b00;fontStyle=1" vertex="1" parent="G6ygZOddTMhaDp_n0CKD-1">
          <mxGeometry x="570" y="417.5" width="120" height="75" as="geometry" />
        </mxCell>
        <mxCell id="G6ygZOddTMhaDp_n0CKD-10" value="Pod" style="rounded=0;whiteSpace=wrap;html=1;fontSize=22;fillColor=#ffe6cc;strokeColor=#d79b00;fontStyle=1" vertex="1" parent="G6ygZOddTMhaDp_n0CKD-1">
          <mxGeometry x="780" y="370" width="120" height="40" as="geometry" />
        </mxCell>
        <mxCell id="G6ygZOddTMhaDp_n0CKD-14" value="Pod" style="rounded=0;whiteSpace=wrap;html=1;fontSize=22;fillColor=#ffe6cc;strokeColor=#d79b00;fontStyle=1" vertex="1" parent="G6ygZOddTMhaDp_n0CKD-1">
          <mxGeometry x="780" y="413" width="120" height="40" as="geometry" />
        </mxCell>
        <mxCell id="G6ygZOddTMhaDp_n0CKD-15" value="Pod" style="rounded=0;whiteSpace=wrap;html=1;fontSize=22;fillColor=#ffe6cc;strokeColor=#d79b00;fontStyle=1" vertex="1" parent="G6ygZOddTMhaDp_n0CKD-1">
          <mxGeometry x="780" y="457" width="120" height="40" as="geometry" />
        </mxCell>
        <mxCell id="G6ygZOddTMhaDp_n0CKD-16" value="Pod" style="rounded=0;whiteSpace=wrap;html=1;fontSize=22;fillColor=#ffe6cc;strokeColor=#d79b00;fontStyle=1" vertex="1" parent="G6ygZOddTMhaDp_n0CKD-1">
          <mxGeometry x="780" y="500" width="120" height="40" as="geometry" />
        </mxCell>
        <mxCell id="8xhZC5TBvIrHrCFjHUZ--1" style="edgeStyle=orthogonalEdgeStyle;rounded=0;orthogonalLoop=1;jettySize=auto;html=1;exitX=0.5;exitY=0;exitDx=0;exitDy=0;fontSize=22;" edge="1" parent="G6ygZOddTMhaDp_n0CKD-1" source="8xhZC5TBvIrHrCFjHUZ--0" target="G6ygZOddTMhaDp_n0CKD-9">
          <mxGeometry relative="1" as="geometry" />
        </mxCell>
        <mxCell id="8xhZC5TBvIrHrCFjHUZ--0" value="Config file containing router rules" style="rounded=0;whiteSpace=wrap;html=1;fontSize=22;fillColor=#f8cecc;strokeColor=#b85450;" vertex="1" parent="G6ygZOddTMhaDp_n0CKD-1">
          <mxGeometry x="510" y="590" width="240" height="60" as="geometry" />
        </mxCell>
      </root>
    </mxGraphModel>
  </diagram>
  <diagram id="mIdhdfj0K1o6B1OYVwN9" name="08 - ingress-nginx">
    <mxGraphModel dx="715" dy="352" grid="1" gridSize="10" guides="1" tooltips="1" connect="1" arrows="1" fold="1" page="1" pageScale="1" pageWidth="1920" pageHeight="1200" math="0" shadow="0">
      <root>
        <mxCell id="fpS5laaW7h69vcRemKj8-0" />
        <mxCell id="fpS5laaW7h69vcRemKj8-1" parent="fpS5laaW7h69vcRemKj8-0" />
        <mxCell id="fpS5laaW7h69vcRemKj8-2" value="ingress-nginx" style="rounded=0;whiteSpace=wrap;html=1;fontSize=24;align=center;fillColor=#dae8fc;strokeColor=#6c8ebf;fontStyle=1" vertex="1" parent="fpS5laaW7h69vcRemKj8-1">
          <mxGeometry x="590" y="280" width="370" height="60" as="geometry" />
        </mxCell>
        <mxCell id="fpS5laaW7h69vcRemKj8-3" value="Project that will create a Load Balancer Service + an Ingress for us" style="text;html=1;strokeColor=none;fillColor=none;align=center;verticalAlign=middle;whiteSpace=wrap;rounded=0;fontSize=14;fontStyle=2" vertex="1" parent="fpS5laaW7h69vcRemKj8-1">
          <mxGeometry x="671.25" y="350" width="207.5" height="40" as="geometry" />
        </mxCell>
      </root>
    </mxGraphModel>
  </diagram>
  <diagram id="uzgrLul_12Ug-Hyund2u" name="09 - note">
    <mxGraphModel dx="668" dy="328" grid="1" gridSize="10" guides="1" tooltips="1" connect="1" arrows="1" fold="1" page="1" pageScale="1" pageWidth="1920" pageHeight="1200" math="0" shadow="0">
      <root>
        <mxCell id="zlQjXIIbUOAr237vyhyd-0" />
        <mxCell id="zlQjXIIbUOAr237vyhyd-1" parent="zlQjXIIbUOAr237vyhyd-0" />
        <mxCell id="olWA6iKNs5Iw2-wOCADI-0" value="ingress-nginx" style="rounded=0;whiteSpace=wrap;html=1;fontSize=24;align=center;fillColor=#dae8fc;strokeColor=#6c8ebf;fontStyle=1" vertex="1" parent="zlQjXIIbUOAr237vyhyd-1">
          <mxGeometry x="590" y="280" width="370" height="60" as="geometry" />
        </mxCell>
        <mxCell id="olWA6iKNs5Iw2-wOCADI-1" value="We are using" style="text;html=1;strokeColor=none;fillColor=none;align=center;verticalAlign=middle;whiteSpace=wrap;rounded=0;fontSize=22;fontStyle=1" vertex="1" parent="zlQjXIIbUOAr237vyhyd-1">
          <mxGeometry x="682.5" y="250" width="185" height="20" as="geometry" />
        </mxCell>
        <mxCell id="olWA6iKNs5Iw2-wOCADI-2" value="There is another project that does &lt;i&gt;the same thing&lt;/i&gt;&amp;nbsp;with an almost &lt;i&gt;identical name&lt;/i&gt;" style="text;html=1;strokeColor=none;fillColor=none;align=center;verticalAlign=middle;whiteSpace=wrap;rounded=0;fontSize=22;fontStyle=1" vertex="1" parent="zlQjXIIbUOAr237vyhyd-1">
          <mxGeometry x="611.25" y="380" width="327.5" height="20" as="geometry" />
        </mxCell>
        <mxCell id="olWA6iKNs5Iw2-wOCADI-3" value="kubernetes-ingress" style="rounded=0;whiteSpace=wrap;html=1;fontSize=24;align=center;fillColor=#f8cecc;strokeColor=#b85450;fontStyle=1" vertex="1" parent="zlQjXIIbUOAr237vyhyd-1">
          <mxGeometry x="590" y="460" width="370" height="60" as="geometry" />
        </mxCell>
      </root>
    </mxGraphModel>
  </diagram>
  <diagram id="r19xY95KY4_P2Kj6TJ_c" name="11 - host">
    <mxGraphModel dx="791" dy="389" grid="1" gridSize="10" guides="1" tooltips="1" connect="1" arrows="1" fold="1" page="1" pageScale="1" pageWidth="1920" pageHeight="1200" math="0" shadow="0">
      <root>
        <mxCell id="0YgUBshkcW2bLN9v5bWN-0" />
        <mxCell id="0YgUBshkcW2bLN9v5bWN-1" parent="0YgUBshkcW2bLN9v5bWN-0" />
        <mxCell id="npHhpib6o36hizU4dRXS-0" value="Kubernetes Cluster" style="rounded=0;whiteSpace=wrap;html=1;fontSize=34;align=center;fontStyle=1;fillColor=#dae8fc;strokeColor=#6c8ebf;" vertex="1" parent="0YgUBshkcW2bLN9v5bWN-1">
          <mxGeometry x="720" y="280" width="300" height="120" as="geometry" />
        </mxCell>
        <mxCell id="npHhpib6o36hizU4dRXS-3" style="edgeStyle=orthogonalEdgeStyle;rounded=0;orthogonalLoop=1;jettySize=auto;html=1;exitX=1;exitY=0.5;exitDx=0;exitDy=0;fontSize=20;" edge="1" parent="0YgUBshkcW2bLN9v5bWN-1" source="npHhpib6o36hizU4dRXS-2" target="npHhpib6o36hizU4dRXS-0">
          <mxGeometry relative="1" as="geometry" />
        </mxCell>
        <mxCell id="npHhpib6o36hizU4dRXS-2" value="my-app.com" style="rounded=0;whiteSpace=wrap;html=1;fontSize=20;align=center;fillColor=#f5f5f5;strokeColor=#666666;fontColor=#333333;" vertex="1" parent="0YgUBshkcW2bLN9v5bWN-1">
          <mxGeometry x="360" y="230" width="230" height="60" as="geometry" />
        </mxCell>
        <mxCell id="npHhpib6o36hizU4dRXS-5" style="edgeStyle=orthogonalEdgeStyle;rounded=0;orthogonalLoop=1;jettySize=auto;html=1;exitX=1;exitY=0.5;exitDx=0;exitDy=0;fontSize=20;" edge="1" parent="0YgUBshkcW2bLN9v5bWN-1" source="npHhpib6o36hizU4dRXS-4" target="npHhpib6o36hizU4dRXS-0">
          <mxGeometry relative="1" as="geometry" />
        </mxCell>
        <mxCell id="npHhpib6o36hizU4dRXS-4" value="post-tracker.com" style="rounded=0;whiteSpace=wrap;html=1;fontSize=20;align=center;fillColor=#f5f5f5;strokeColor=#666666;fontColor=#333333;" vertex="1" parent="0YgUBshkcW2bLN9v5bWN-1">
          <mxGeometry x="360" y="310" width="230" height="60" as="geometry" />
        </mxCell>
        <mxCell id="npHhpib6o36hizU4dRXS-7" style="edgeStyle=orthogonalEdgeStyle;rounded=0;orthogonalLoop=1;jettySize=auto;html=1;exitX=1;exitY=0.5;exitDx=0;exitDy=0;entryX=0;entryY=0.5;entryDx=0;entryDy=0;fontSize=20;" edge="1" parent="0YgUBshkcW2bLN9v5bWN-1" source="npHhpib6o36hizU4dRXS-6" target="npHhpib6o36hizU4dRXS-0">
          <mxGeometry relative="1" as="geometry" />
        </mxCell>
        <mxCell id="npHhpib6o36hizU4dRXS-6" value="blog-app.com" style="rounded=0;whiteSpace=wrap;html=1;fontSize=20;align=center;fillColor=#f5f5f5;strokeColor=#666666;fontColor=#333333;" vertex="1" parent="0YgUBshkcW2bLN9v5bWN-1">
          <mxGeometry x="360" y="390" width="230" height="60" as="geometry" />
        </mxCell>
      </root>
    </mxGraphModel>
  </diagram>
  <diagram id="djKDMjJP8zdoiCKxZF1V" name="12 - hosts">
    <mxGraphModel dx="715" dy="352" grid="1" gridSize="10" guides="1" tooltips="1" connect="1" arrows="1" fold="1" page="1" pageScale="1" pageWidth="1920" pageHeight="1200" math="0" shadow="0">
      <root>
        <mxCell id="q2ZN-8JSdqxRXOe2n0cD-0" />
        <mxCell id="q2ZN-8JSdqxRXOe2n0cD-1" parent="q2ZN-8JSdqxRXOe2n0cD-0" />
        <mxCell id="q2ZN-8JSdqxRXOe2n0cD-5" style="edgeStyle=orthogonalEdgeStyle;rounded=0;orthogonalLoop=1;jettySize=auto;html=1;exitX=1;exitY=0.5;exitDx=0;exitDy=0;fontSize=20;" edge="1" parent="q2ZN-8JSdqxRXOe2n0cD-1" source="q2ZN-8JSdqxRXOe2n0cD-2" target="q2ZN-8JSdqxRXOe2n0cD-4">
          <mxGeometry relative="1" as="geometry" />
        </mxCell>
        <mxCell id="q2ZN-8JSdqxRXOe2n0cD-2" value="Windows" style="rounded=0;whiteSpace=wrap;html=1;fontSize=20;align=center;fillColor=#dae8fc;strokeColor=#6c8ebf;fontStyle=1" vertex="1" parent="q2ZN-8JSdqxRXOe2n0cD-1">
          <mxGeometry x="550" y="260" width="200" height="60" as="geometry" />
        </mxCell>
        <mxCell id="q2ZN-8JSdqxRXOe2n0cD-3" value="MacOS/Linux" style="rounded=0;whiteSpace=wrap;html=1;fontSize=20;align=center;fillColor=#dae8fc;strokeColor=#6c8ebf;fontStyle=1" vertex="1" parent="q2ZN-8JSdqxRXOe2n0cD-1">
          <mxGeometry x="550" y="340" width="200" height="60" as="geometry" />
        </mxCell>
        <mxCell id="q2ZN-8JSdqxRXOe2n0cD-4" value="C:\Windows\System32\Drivers\etc\hosts" style="rounded=0;whiteSpace=wrap;html=1;fontSize=20;align=center;" vertex="1" parent="q2ZN-8JSdqxRXOe2n0cD-1">
          <mxGeometry x="790" y="260" width="380" height="60" as="geometry" />
        </mxCell>
        <mxCell id="q2ZN-8JSdqxRXOe2n0cD-6" style="edgeStyle=orthogonalEdgeStyle;rounded=0;orthogonalLoop=1;jettySize=auto;html=1;exitX=1;exitY=0.5;exitDx=0;exitDy=0;fontSize=20;" edge="1" parent="q2ZN-8JSdqxRXOe2n0cD-1" target="q2ZN-8JSdqxRXOe2n0cD-7">
          <mxGeometry relative="1" as="geometry">
            <mxPoint x="750" y="370" as="sourcePoint" />
          </mxGeometry>
        </mxCell>
        <mxCell id="q2ZN-8JSdqxRXOe2n0cD-7" value="/etc/hosts" style="rounded=0;whiteSpace=wrap;html=1;fontSize=20;align=center;" vertex="1" parent="q2ZN-8JSdqxRXOe2n0cD-1">
          <mxGeometry x="790" y="340" width="380" height="60" as="geometry" />
        </mxCell>
        <mxCell id="q2ZN-8JSdqxRXOe2n0cD-9" value="Host File Location" style="text;html=1;strokeColor=none;fillColor=none;align=center;verticalAlign=middle;whiteSpace=wrap;rounded=0;fontSize=25;fontStyle=1" vertex="1" parent="q2ZN-8JSdqxRXOe2n0cD-1">
          <mxGeometry x="740" y="230" width="310" height="20" as="geometry" />
        </mxCell>
      </root>
    </mxGraphModel>
  </diagram>
  <diagram id="cyF6PhWAzHaKcFkkapbI" name="13 - req">
    <mxGraphModel dx="1036" dy="510" grid="1" gridSize="10" guides="1" tooltips="1" connect="1" arrows="1" fold="1" page="1" pageScale="1" pageWidth="1920" pageHeight="1200" math="0" shadow="0">
      <root>
        <mxCell id="1ZdcTpenl3rmmfjgzEs0-0" />
        <mxCell id="1ZdcTpenl3rmmfjgzEs0-1" parent="1ZdcTpenl3rmmfjgzEs0-0" />
        <mxCell id="hEGj2_szkBsT66MqO2wI-1" value="" style="rounded=0;whiteSpace=wrap;html=1;fontSize=25;align=center;fillColor=#dae8fc;strokeColor=#6c8ebf;" vertex="1" parent="1ZdcTpenl3rmmfjgzEs0-1">
          <mxGeometry x="280" y="260" width="600" height="497" as="geometry" />
        </mxCell>
        <mxCell id="6qolR1-FVsol1uLAkNm2-0" value="Pod" style="rounded=0;whiteSpace=wrap;html=1;fontSize=19;fillColor=#d5e8d4;strokeColor=#82b366;fontStyle=1" vertex="1" parent="1ZdcTpenl3rmmfjgzEs0-1">
          <mxGeometry x="710" y="270" width="160" height="30" as="geometry" />
        </mxCell>
        <mxCell id="6qolR1-FVsol1uLAkNm2-1" value="" style="rounded=0;whiteSpace=wrap;html=1;fontSize=19;fillColor=#d5e8d4;strokeColor=#82b366;fontStyle=1" vertex="1" parent="1ZdcTpenl3rmmfjgzEs0-1">
          <mxGeometry x="710" y="300" width="160" height="60" as="geometry" />
        </mxCell>
        <mxCell id="6qolR1-FVsol1uLAkNm2-2" value="Posts" style="rounded=0;whiteSpace=wrap;html=1;fontSize=15;fontColor=#000000;" vertex="1" parent="1ZdcTpenl3rmmfjgzEs0-1">
          <mxGeometry x="720" y="307" width="140" height="43" as="geometry" />
        </mxCell>
        <mxCell id="6qolR1-FVsol1uLAkNm2-3" value="Pod" style="rounded=0;whiteSpace=wrap;html=1;fontSize=19;fillColor=#d5e8d4;strokeColor=#82b366;fontStyle=1" vertex="1" parent="1ZdcTpenl3rmmfjgzEs0-1">
          <mxGeometry x="710" y="365" width="160" height="30" as="geometry" />
        </mxCell>
        <mxCell id="6qolR1-FVsol1uLAkNm2-4" value="" style="rounded=0;whiteSpace=wrap;html=1;fontSize=19;fillColor=#d5e8d4;strokeColor=#82b366;fontStyle=1" vertex="1" parent="1ZdcTpenl3rmmfjgzEs0-1">
          <mxGeometry x="710" y="395" width="160" height="60" as="geometry" />
        </mxCell>
        <mxCell id="6qolR1-FVsol1uLAkNm2-5" value="Comments" style="rounded=0;whiteSpace=wrap;html=1;fontSize=15;fontColor=#000000;" vertex="1" parent="1ZdcTpenl3rmmfjgzEs0-1">
          <mxGeometry x="720" y="402" width="140" height="43" as="geometry" />
        </mxCell>
        <mxCell id="6qolR1-FVsol1uLAkNm2-6" value="Pod" style="rounded=0;whiteSpace=wrap;html=1;fontSize=19;fillColor=#d5e8d4;strokeColor=#82b366;fontStyle=1" vertex="1" parent="1ZdcTpenl3rmmfjgzEs0-1">
          <mxGeometry x="710" y="460" width="160" height="30" as="geometry" />
        </mxCell>
        <mxCell id="6qolR1-FVsol1uLAkNm2-7" value="" style="rounded=0;whiteSpace=wrap;html=1;fontSize=19;fillColor=#d5e8d4;strokeColor=#82b366;fontStyle=1" vertex="1" parent="1ZdcTpenl3rmmfjgzEs0-1">
          <mxGeometry x="710" y="490" width="160" height="60" as="geometry" />
        </mxCell>
        <mxCell id="6qolR1-FVsol1uLAkNm2-8" value="Query" style="rounded=0;whiteSpace=wrap;html=1;fontSize=15;fontColor=#000000;" vertex="1" parent="1ZdcTpenl3rmmfjgzEs0-1">
          <mxGeometry x="720" y="497" width="140" height="43" as="geometry" />
        </mxCell>
        <mxCell id="6qolR1-FVsol1uLAkNm2-9" value="Pod" style="rounded=0;whiteSpace=wrap;html=1;fontSize=19;fillColor=#d5e8d4;strokeColor=#82b366;fontStyle=1" vertex="1" parent="1ZdcTpenl3rmmfjgzEs0-1">
          <mxGeometry x="710" y="560" width="160" height="30" as="geometry" />
        </mxCell>
        <mxCell id="6qolR1-FVsol1uLAkNm2-10" value="" style="rounded=0;whiteSpace=wrap;html=1;fontSize=19;fillColor=#d5e8d4;strokeColor=#82b366;fontStyle=1" vertex="1" parent="1ZdcTpenl3rmmfjgzEs0-1">
          <mxGeometry x="710" y="590" width="160" height="60" as="geometry" />
        </mxCell>
        <mxCell id="6qolR1-FVsol1uLAkNm2-11" value="Moderation" style="rounded=0;whiteSpace=wrap;html=1;fontSize=15;fontColor=#000000;" vertex="1" parent="1ZdcTpenl3rmmfjgzEs0-1">
          <mxGeometry x="720" y="597" width="140" height="43" as="geometry" />
        </mxCell>
        <mxCell id="6qolR1-FVsol1uLAkNm2-12" value="Pod" style="rounded=0;whiteSpace=wrap;html=1;fontSize=19;fillColor=#d5e8d4;strokeColor=#82b366;fontStyle=1" vertex="1" parent="1ZdcTpenl3rmmfjgzEs0-1">
          <mxGeometry x="710" y="660" width="160" height="30" as="geometry" />
        </mxCell>
        <mxCell id="6qolR1-FVsol1uLAkNm2-13" value="" style="rounded=0;whiteSpace=wrap;html=1;fontSize=19;fillColor=#d5e8d4;strokeColor=#82b366;fontStyle=1" vertex="1" parent="1ZdcTpenl3rmmfjgzEs0-1">
          <mxGeometry x="710" y="690" width="160" height="60" as="geometry" />
        </mxCell>
        <mxCell id="6qolR1-FVsol1uLAkNm2-14" value="React" style="rounded=0;whiteSpace=wrap;html=1;fontSize=15;fontColor=#000000;" vertex="1" parent="1ZdcTpenl3rmmfjgzEs0-1">
          <mxGeometry x="720" y="697" width="140" height="43" as="geometry" />
        </mxCell>
        <mxCell id="hEGj2_szkBsT66MqO2wI-2" style="edgeStyle=orthogonalEdgeStyle;rounded=0;orthogonalLoop=1;jettySize=auto;html=1;exitX=1;exitY=0.5;exitDx=0;exitDy=0;entryX=0;entryY=0.5;entryDx=0;entryDy=0;fontSize=25;" edge="1" parent="1ZdcTpenl3rmmfjgzEs0-1" source="hEGj2_szkBsT66MqO2wI-0" target="6qolR1-FVsol1uLAkNm2-1">
          <mxGeometry relative="1" as="geometry">
            <Array as="points">
              <mxPoint x="410" y="521" />
              <mxPoint x="460" y="521" />
              <mxPoint x="460" y="330" />
            </Array>
          </mxGeometry>
        </mxCell>
        <mxCell id="hEGj2_szkBsT66MqO2wI-3" style="edgeStyle=orthogonalEdgeStyle;rounded=0;orthogonalLoop=1;jettySize=auto;html=1;exitX=1;exitY=0.5;exitDx=0;exitDy=0;entryX=0;entryY=0.5;entryDx=0;entryDy=0;fontSize=25;" edge="1" parent="1ZdcTpenl3rmmfjgzEs0-1" source="hEGj2_szkBsT66MqO2wI-0" target="6qolR1-FVsol1uLAkNm2-4">
          <mxGeometry relative="1" as="geometry">
            <Array as="points">
              <mxPoint x="410" y="521" />
              <mxPoint x="460" y="521" />
              <mxPoint x="460" y="425" />
            </Array>
          </mxGeometry>
        </mxCell>
        <mxCell id="hEGj2_szkBsT66MqO2wI-4" style="edgeStyle=orthogonalEdgeStyle;rounded=0;orthogonalLoop=1;jettySize=auto;html=1;exitX=1;exitY=0.5;exitDx=0;exitDy=0;entryX=0;entryY=0.5;entryDx=0;entryDy=0;fontSize=25;" edge="1" parent="1ZdcTpenl3rmmfjgzEs0-1" source="hEGj2_szkBsT66MqO2wI-0" target="6qolR1-FVsol1uLAkNm2-7">
          <mxGeometry relative="1" as="geometry" />
        </mxCell>
        <mxCell id="hEGj2_szkBsT66MqO2wI-5" style="edgeStyle=orthogonalEdgeStyle;rounded=0;orthogonalLoop=1;jettySize=auto;html=1;exitX=1;exitY=0.5;exitDx=0;exitDy=0;entryX=0;entryY=0.5;entryDx=0;entryDy=0;fontSize=25;" edge="1" parent="1ZdcTpenl3rmmfjgzEs0-1" source="hEGj2_szkBsT66MqO2wI-0" target="6qolR1-FVsol1uLAkNm2-13">
          <mxGeometry relative="1" as="geometry">
            <Array as="points">
              <mxPoint x="410" y="521" />
              <mxPoint x="460" y="521" />
              <mxPoint x="460" y="720" />
            </Array>
          </mxGeometry>
        </mxCell>
        <mxCell id="hEGj2_szkBsT66MqO2wI-0" value="Ingress Controller" style="rounded=0;whiteSpace=wrap;html=1;fontSize=22;fillColor=#ffe6cc;strokeColor=#d79b00;fontStyle=1" vertex="1" parent="1ZdcTpenl3rmmfjgzEs0-1">
          <mxGeometry x="290" y="482.5" width="120" height="75" as="geometry" />
        </mxCell>
        <mxCell id="hEGj2_szkBsT66MqO2wI-8" value="/posts/create" style="rounded=0;whiteSpace=wrap;html=1;fontSize=14;align=center;fillColor=#f8cecc;strokeColor=#b85450;fontStyle=1" vertex="1" parent="1ZdcTpenl3rmmfjgzEs0-1">
          <mxGeometry x="480" y="300" width="200" height="30" as="geometry" />
        </mxCell>
        <mxCell id="hEGj2_szkBsT66MqO2wI-9" value="/posts/:id/comments" style="rounded=0;whiteSpace=wrap;html=1;fontSize=14;align=center;fillColor=#f8cecc;strokeColor=#b85450;fontStyle=1" vertex="1" parent="1ZdcTpenl3rmmfjgzEs0-1">
          <mxGeometry x="480" y="395" width="200" height="30" as="geometry" />
        </mxCell>
        <mxCell id="hEGj2_szkBsT66MqO2wI-10" value="/posts" style="rounded=0;whiteSpace=wrap;html=1;fontSize=14;align=center;fillColor=#f8cecc;strokeColor=#b85450;fontStyle=1" vertex="1" parent="1ZdcTpenl3rmmfjgzEs0-1">
          <mxGeometry x="480" y="490" width="200" height="30" as="geometry" />
        </mxCell>
        <mxCell id="hEGj2_szkBsT66MqO2wI-11" value="/" style="rounded=0;whiteSpace=wrap;html=1;fontSize=14;align=center;fillColor=#f8cecc;strokeColor=#b85450;fontStyle=1" vertex="1" parent="1ZdcTpenl3rmmfjgzEs0-1">
          <mxGeometry x="480" y="690" width="200" height="30" as="geometry" />
        </mxCell>
      </root>
    </mxGraphModel>
  </diagram>
  <diagram id="9G-ivo2edKx0hD1haGkM" name="14 - skaffold">
    <mxGraphModel dx="589" dy="290" grid="1" gridSize="10" guides="1" tooltips="1" connect="1" arrows="1" fold="1" page="1" pageScale="1" pageWidth="1920" pageHeight="1200" math="0" shadow="0">
      <root>
        <mxCell id="1NUAYry0pzQK9BvAwsn7-0" />
        <mxCell id="1NUAYry0pzQK9BvAwsn7-1" parent="1NUAYry0pzQK9BvAwsn7-0" />
        <mxCell id="1NUAYry0pzQK9BvAwsn7-2" value="&lt;span style=&quot;font-weight: normal; font-size: 16px;&quot;&gt;Automates many tasks in a Kubernetes dev environment&lt;/span&gt;" style="rounded=0;whiteSpace=wrap;html=1;fontSize=16;align=center;fontStyle=1" vertex="1" parent="1NUAYry0pzQK9BvAwsn7-1">
          <mxGeometry x="640" y="280" width="410" height="50" as="geometry" />
        </mxCell>
        <mxCell id="1NUAYry0pzQK9BvAwsn7-3" value="Skaffold" style="text;html=1;strokeColor=none;fillColor=none;align=center;verticalAlign=middle;whiteSpace=wrap;rounded=0;fontSize=25;fontStyle=1" vertex="1" parent="1NUAYry0pzQK9BvAwsn7-1">
          <mxGeometry x="825" y="250" width="40" height="20" as="geometry" />
        </mxCell>
        <mxCell id="1NUAYry0pzQK9BvAwsn7-4" value="&lt;span style=&quot;font-weight: normal; font-size: 16px;&quot;&gt;Makes it really easy to update code in a &lt;i style=&quot;font-size: 16px;&quot;&gt;running pod&lt;/i&gt;&lt;/span&gt;" style="rounded=0;whiteSpace=wrap;html=1;fontSize=16;align=center;fontStyle=1" vertex="1" parent="1NUAYry0pzQK9BvAwsn7-1">
          <mxGeometry x="640" y="340" width="410" height="50" as="geometry" />
        </mxCell>
        <mxCell id="1NUAYry0pzQK9BvAwsn7-5" value="&lt;span style=&quot;font-weight: 400; font-size: 16px;&quot;&gt;Makes it really easy to create/delete all objects tied to a project at once&lt;/span&gt;" style="rounded=0;whiteSpace=wrap;html=1;fontSize=16;align=center;fontStyle=1" vertex="1" parent="1NUAYry0pzQK9BvAwsn7-1">
          <mxGeometry x="640" y="400" width="410" height="50" as="geometry" />
        </mxCell>
        <mxCell id="1NUAYry0pzQK9BvAwsn7-6" value="&lt;span style=&quot;font-size: 16px;&quot;&gt;skaffold.dev&lt;/span&gt;" style="rounded=0;whiteSpace=wrap;html=1;fontSize=16;align=center;fontStyle=1" vertex="1" parent="1NUAYry0pzQK9BvAwsn7-1">
          <mxGeometry x="640" y="460" width="410" height="50" as="geometry" />
        </mxCell>
      </root>
    </mxGraphModel>
  </diagram>
</mxfile>
